<?xml version="1.0" encoding="UTF-8"?>
<svg id="Layer_2" data-name="Layer 2" xmlns="http://www.w3.org/2000/svg" viewBox="0 0 526.72 536.63">
  <defs>
    <style>
      .cls-1 {
        fill: #a50a0a;
      }

      .cls-1, .cls-2, .cls-3 {
        stroke-width: 0px;
      }

      .cls-2 {
        fill: #006837;
      }

      .cls-3 {
        fill: #fff;
      }
    </style>
  </defs>
  <g id="Layer_1-2" data-name="Layer 1">
    <g id="stamp">
      <g>
        <g>
          <path class="cls-3" d="M183.56,385.62c-2.17-2.3-4.59-4.38-7.21-6.19-.2-.15-.4-.29-.62-.42-2.65-1.78-5.51-3.29-8.52-4.48-5.21-2.07-10.9-3.22-16.84-3.22-11.28,0-21.62,4.11-29.6,10.91-2.45,2.09-4.67,4.42-6.64,6.98-5.34,6.94-8.73,15.44-9.35,24.7-.08,1.03-.11,2.07-.11,3.12,0,2.41.19,4.78.55,7.09,3.42,21.84,22.36,38.6,45.15,38.6,8.41,0,16.29-2.28,23.07-6.26,2.75-1.61,5.31-3.5,7.66-5.64,9.19-8.36,14.97-20.42,14.97-33.79,0-12.14-4.76-23.19-12.52-31.39ZM150.37,453.33c-20.04,0-36.33-16.29-36.33-36.32s16.29-36.33,36.33-36.33c5.58,0,10.87,1.27,15.6,3.52.16.08.31.15.46.23,0,0,.01,0,.01,0,0,0,0,0,.01,0,11.98,5.94,20.24,18.31,20.24,32.57,0,20.03-16.3,36.32-36.33,36.32Z"/>
          <path class="cls-1" d="M166.46,384.44s0,0-.01,0c0,0,0,0-.01,0-.15-.08-.3-.15-.46-.23-4.73-2.26-10.02-3.52-15.6-3.52-20.04,0-36.33,16.29-36.33,36.33s16.29,36.32,36.33,36.32,36.33-16.29,36.33-36.32c0-14.26-8.26-26.63-20.24-32.57ZM165.17,439.75c-.84.64-1.83.94-2.81.94-1.42,0-2.83-.64-3.75-1.87-1.56-2.07-1.14-5,.93-6.56,7.85-5.91,5.21-17.73,5.19-17.86-.59-2.52.98-5.04,3.5-5.62,2.52-.59,5.04.99,5.62,3.51.17.73,3.99,17.93-8.68,27.46Z"/>
        </g>
        <path class="cls-3" d="M262.38,419.26c0,2.27-.15,4.53-.44,6.75-.9,6.95-3.19,13.66-6.75,19.67-.08.13-.15.26-.23.39-.34.59-.7,1.17-1.08,1.75-.85,1.32-1.78,2.61-2.78,3.87-.88,1.12-1.83,2.21-2.82,3.27-.03.04-.06.07-.1.11-.5.53-1.01,1.05-1.53,1.55-.66.65-1.33,1.27-2.02,1.87-3.04,2.68-6.37,4.99-9.96,6.88-1.28.69-2.59,1.31-3.93,1.89-1.54.67-3.11,1.25-4.7,1.76-5.1,1.64-10.43,2.47-15.89,2.47-13.81,0-26.97-5.44-36.69-15.06-.96-.95-1.89-1.94-2.78-2.98-1.69-1.96-1.48-4.92.48-6.61,1.96-1.69,4.92-1.48,6.61.48,1.05,1.22,2.17,2.38,3.35,3.46,7.86,7.25,18.2,11.32,29.03,11.32,5.85,0,11.52-1.16,16.83-3.44.06-.03.12-.05.19-.08,5.33-2.3,10.04-5.59,14.02-9.78.01-.01.02-.03.04-.04.02-.03.05-.06.08-.09.05-.05.09-.09.13-.13.01-.02.03-.04.05-.05.05-.05.09-.1.15-.15.01-.02.03-.03.04-.04,2.11-2.29,3.94-4.76,5.44-7.35,3.87-6.55,5.91-14.04,5.91-21.7,0-4.25-.63-8.47-1.86-12.51-3.51-11.51-11.76-21.07-22.67-26.23-.08-.04-.16-.08-.25-.12-1.99-.95-4.12-1.74-6.37-2.37-3.81-1.09-7.76-1.63-11.72-1.63-8.06,0-15.9,2.24-22.67,6.49-.04.02-.08.05-.12.08-1.32.83-2.6,1.72-3.8,2.67-1.26,1-2.45,2.06-3.56,3.19-1.82,1.84-4.79,1.85-6.63.03-1.84-1.82-1.86-4.79-.04-6.63.96-.97,1.97-1.9,3.01-2.78.08-.08.17-.15.25-.22,1.81-1.52,3.74-2.92,5.78-4.19.81-.51,1.63-1,2.47-1.47,7.69-4.27,16.37-6.53,25.29-6.53,4.83,0,9.63.67,14.27,1.99,1.82.5,3.59,1.11,5.28,1.79.91.37,1.81.76,2.68,1.18,2.15,1.01,4.22,2.16,6.19,3.44,9.29,6.03,16.49,14.92,20.43,25.32.42,1.08.79,2.17,1.12,3.27.6,1.95,1.08,3.93,1.44,5.93h0c.56,3.06.83,6.17.83,9.31Z"/>
        <path class="cls-3" d="M297.06,370.77c0,20.41-15.61,37.24-35.51,39.18h0c-1.27.13-2.55.19-3.85.19-.79,0-1.58-.03-2.39-.09-2.58-.18-4.53-2.41-4.35-5,.18-2.58,2.42-4.55,5-4.35.6.04,1.17.06,1.74.06.43,0,.87-.01,1.29-.03,15.94-.68,28.7-13.87,28.7-29.97,0-12.38-7.41-23.3-18.91-27.87-.04-.02-.08-.03-.12-.05-.04-.01-.08-.03-.11-.04-3.47-1.35-7.12-2.04-10.86-2.04-1.62,0-3.23.13-4.83.4-1.1.18-2.19.42-3.27.71-.5.18-1.04.28-1.61.28-2.43,0-4.42-1.83-4.66-4.19,0-.02,0-.04,0-.06,0-.05,0-.09,0-.13,0-.02,0-.04,0-.06h0c0-.08,0-.15,0-.22v-.03c0-2.09,1.38-3.92,3.39-4.5,1.71-.5,3.44-.88,5.2-1.14,1.92-.29,3.87-.43,5.81-.43,3.76,0,7.46.53,11.04,1.59.75.22,1.49.47,2.23.73,0,0,.01,0,.02,0,.25.09.5.18.75.28.08.02.16.05.25.09.32.12.64.26.95.39,0,0,0,0,0,0,1.61.67,3.15,1.44,4.62,2.29,12.02,6.98,19.51,19.75,19.51,34.01Z"/>
        <path class="cls-3" d="M284.19,314.87c0,4.96-.91,9.77-2.69,14.31-.03.09-.06.18-.1.26-.07.18-.14.35-.22.52,0,0,0,.01,0,.02-.98,2.39-2.19,4.65-3.63,6.78-1.05,1.56-2.22,3.05-3.5,4.46-.1.13-.21.26-.32.39-.46.5-1.01.89-1.6,1.14-.12.05-.25.1-.37.14-.23.08-.46.14-.7.18-.13.02-.26.04-.39.05-.13.01-.26.02-.39.02s-.25,0-.37-.02c-.28-.02-.54-.06-.81-.13-.05-.01-.09-.02-.13-.04-.02,0-.05-.01-.07-.02-.08-.02-.15-.05-.22-.07-.01,0-.03-.01-.05-.02-.54-.21-1.04-.51-1.49-.91-.09-.09-.19-.18-.27-.27-.09-.09-.17-.19-.25-.29-.57-.71-.9-1.56-.99-2.44-.02-.15-.04-.32-.04-.47,0-.38.05-.76.14-1.11.04-.13.07-.27.12-.4,0,0,0-.02,0-.02.01-.04.03-.08.05-.12.03-.08.06-.16.1-.25.04-.09.08-.19.13-.28.1-.21.21-.39.34-.57.05-.07.09-.13.14-.19,0,0,0-.01.01-.02.04-.05.08-.1.12-.14.05-.07.11-.13.16-.19.65-.7,1.27-1.42,1.84-2.18,1.58-2.06,2.88-4.32,3.86-6.74.04-.13.09-.25.14-.37,0-.01,0-.02,0-.02,1.39-3.47,2.09-7.15,2.09-10.97,0-16.51-13.4-29.94-29.9-30h-.25c-5.41.03-10.69,1.51-15.28,4.29-3.25,1.95-6.08,4.47-8.35,7.44-1.18,1.53-2.21,3.19-3.09,4.95-.94,1.9-3,2.88-4.99,2.54-.04,0-.08-.02-.12-.02-.05-.01-.09-.02-.14-.03-.35-.08-.7-.2-1.03-.37-2.32-1.15-3.26-3.97-2.11-6.28.52-1.05,1.08-2.07,1.7-3.06,2.64-4.32,6.08-8.07,10.14-11.07,1.02-.76,2.07-1.46,3.17-2.12,1.62-.98,3.32-1.85,5.06-2.57,3.62-1.53,7.46-2.5,11.4-2.88,1.26-.12,2.53-.19,3.8-.19,1.94,0,3.85.14,5.72.42,17.99,2.62,32.06,17.46,33.53,35.79.09,1.04.13,2.1.13,3.17Z"/>
        <path class="cls-3" d="M188.96,381.23c-.37.68-.88,1.24-1.49,1.64-.04.02-.08.05-.12.08-.75.47-1.62.73-2.51.73-.76,0-1.53-.19-2.24-.57-2.1-1.15-4.11-2.45-6-3.9-.21-.15-.42-.32-.63-.49-1.44-1.12-2.8-2.34-4.09-3.63-1.58-1.58-1.79-4.01-.64-5.82.02-.02.03-.05.05-.08.17-.26.37-.5.6-.73,1.83-1.83,4.8-1.83,6.63,0,.84.84,1.72,1.64,2.64,2.39,1.17.98,2.41,1.87,3.7,2.69.73.47,1.48.91,2.25,1.34,2.27,1.24,3.1,4.09,1.86,6.36Z"/>
        <path class="cls-3" d="M252.86,341.44c0,2.97-.28,5.96-.84,8.87-1.8,9.63-6.51,18.34-13.47,25.1-1.7,1.65-3.53,3.19-5.48,4.59-.83.6-1.78.88-2.73.88-.64,0-1.27-.13-1.86-.38-.08-.04-.16-.08-.25-.12-.66-.33-1.24-.82-1.7-1.46-1.51-2.1-1.03-5.03,1.07-6.54.71-.52,1.41-1.05,2.08-1.6,6.87-5.67,11.49-13.47,13.13-22.22.45-2.35.67-4.75.67-7.13,0-1.08-.06-2.21-.17-3.48,0-.02,0-.04,0-.06,0-.05,0-.09,0-.13,0-.02,0-.04,0-.06h0c-1.14-11.7-7.48-22.02-17.41-28.36-3.95-2.56-8.3-4.32-12.94-5.26-.04,0-.08-.02-.12-.02-.05-.01-.09-.02-.14-.03-2.38-.47-4.84-.7-7.32-.7-11.89,0-22.89,5.45-30.08,14.73-.72.94-1.41,1.91-2.05,2.92-1.39,2.19-4.29,2.83-6.47,1.44-.26-.17-.5-.36-.72-.57-.02-.02-.05-.05-.07-.07-.05-.05-.09-.09-.14-.14-1.4-1.53-1.67-3.86-.5-5.69.98-1.55,2.05-3.02,3.19-4.43,8.96-11.09,22.38-17.56,36.85-17.56,1.97,0,3.94.12,5.87.36,1.15.14,2.29.33,3.42.55,2.17.43,4.31,1.01,6.37,1.73,3.49,1.22,6.81,2.84,9.93,4.86,10.93,6.98,18.37,17.86,20.91,30.36.35,1.7.61,3.44.77,5.2,0,.06,0,.11.01.17.12,1.41.19,2.71.19,3.97,0,.09,0,.19,0,.28Z"/>
        <path class="cls-3" d="M228.27,289.65c-2.48.73-5.09-.7-5.81-3.19-.32-1.1-.68-2.17-1.08-3.2-5.2-13.71-16.91-22.71-29.99-22.71h0c-5.95,0-11.71,1.85-16.75,5.35-.42.29-.83.59-1.24.9-.37.29-.75.59-1.11.89-8.62,7.16-13.71,18.62-13.71,30.97,0,2.38.19,4.76.57,7.1.13.78.28,1.56.45,2.33.56,2.52-1.04,5.03-3.57,5.58-.34.08-.67.11-1.01.11-.54,0-1.07-.09-1.56-.27-.05-.02-.11-.04-.16-.06-.06-.03-.13-.05-.2-.08-1.31-.59-2.33-1.76-2.65-3.27-.54-2.51-.91-5.08-1.09-7.65-.09-1.26-.14-2.52-.14-3.78,0-13.74,5.24-26.66,14.25-35.6,1.34-1.32,2.75-2.57,4.25-3.71,1.04-.8,2.1-1.53,3.19-2.22,4.99-3.13,10.48-5.07,16.2-5.72,1.41-.16,2.85-.24,4.28-.24,1.72,0,3.42.12,5.1.34,14.47,1.96,26.99,12.18,33.13,27.05.7,1.7,1.32,3.46,1.85,5.28.73,2.48-.7,5.09-3.19,5.81Z"/>
        <path class="cls-3" d="M186.58,348.8c0,7.73-1.87,15.27-5.43,22.05-.62,1.17-1.29,2.33-2.01,3.45-.97,1.52-2.03,3-3.18,4.41-.08.1-.15.2-.23.29-1.31,1.59-2.73,3.1-4.25,4.53-1.39,1.3-3.36,1.6-5.02.91,0,0,0,0-.01,0,0,0,0,0-.01,0-.15-.08-.3-.15-.46-.23-.4-.23-.79-.52-1.12-.88-1.77-1.89-1.68-4.86.22-6.63.74-.7,1.46-1.42,2.14-2.17,1.5-1.64,2.85-3.4,4.02-5.25.02-.02.03-.05.05-.08,3.88-6.1,5.93-13.14,5.93-20.39,0-2.74-.29-5.44-.85-8.05-1.53-7.14-5.09-13.66-10.31-18.89-.02-.02-.05-.05-.07-.07-.05-.05-.09-.09-.14-.14-3.59-3.55-7.75-6.29-12.38-8.15-.05-.02-.11-.04-.16-.06-.06-.03-.13-.05-.2-.08-4.44-1.77-9.13-2.65-13.98-2.65-1.88,0-3.79.14-5.67.42-18.49,2.75-32.44,18.96-32.44,37.69,0,13.97,7.67,26.77,19.78,33.41.87.48,1.76.93,2.68,1.34,2.36,1.06,3.41,3.84,2.35,6.19-.79,1.74-2.49,2.77-4.28,2.77-.64,0-1.29-.13-1.92-.42-1.9-.86-3.73-1.83-5.47-2.91-13.85-8.56-22.51-23.83-22.51-40.39,0-11.45,4.13-22.51,11.63-31.14,4.76-5.47,10.67-9.74,17.24-12.54,3.68-1.57,7.56-2.68,11.56-3.27.5-.08,1-.14,1.51-.2,1.85-.21,3.7-.32,5.54-.32,3.49,0,6.91.37,10.24,1.11,2.54.56,5.01,1.32,7.43,2.3.8.32,1.59.66,2.37,1.02,3.35,1.54,6.48,3.47,9.38,5.78,1.42,1.12,2.78,2.34,4.08,3.63.94.94,1.84,1.91,2.69,2.91,5.08,5.97,8.59,13.05,10.23,20.7.7,3.25,1.06,6.62,1.06,10.02Z"/>
        <path class="cls-3" d="M163.67,100.03c-2.49.72-5.09-.7-5.82-3.19-6.34-21.74-32.29-43.74-75.01-63.65C58.49,21.86,35.03,14.2,24.38,10.96c.17,9.75.87,29.72,3.66,51.1,3.7,28.42,9.77,49.82,17.78,63.11h0c.13.22.27.44.4.66,2.79,4.49,5.81,8.01,9.05,10.52,2.04,1.59,2.41,4.53.83,6.58-.93,1.19-2.31,1.82-3.71,1.82-1.01,0-2.02-.32-2.87-.98-2.2-1.7-4.3-3.75-6.29-6.12-2.3-2.72-4.46-5.88-6.49-9.47-8.25-14.59-14.28-36.34-18.01-65-3.97-30.54-3.78-58.25-3.78-58.53.01-1.45.7-2.82,1.86-3.7,1.16-.87,2.66-1.17,4.06-.79.32.09,32.33,8.89,65.92,24.53,31.63,14.73,54.25,30.41,67.62,46.84,3.12,3.83,5.73,7.69,7.83,11.59,1.98,3.66,3.52,7.36,4.6,11.08.73,2.49-.7,5.09-3.18,5.82Z"/>
        <path class="cls-3" d="M227.68,179.87c.02,2.59-2.06,4.7-4.65,4.73h-.04c-2.57,0-4.66-2.07-4.69-4.65-.32-38.3-12-67.61-33.78-84.78-8.13-6.41-16.22-10.03-22.29-12.04-6.07-2.02-10.14-2.44-10.21-2.45-2.58-.25-4.47-2.53-4.22-5.11s2.53-4.47,5.11-4.22c.12.01.63.06,1.49.19,4.8.74,20.31,3.96,35.92,16.27,10.76,8.48,19.36,19.54,25.55,32.86,4.83,10.39,8.19,22.16,10.06,35.2.93,6.49,1.49,13.3,1.68,20.4.04,1.2.05,2.4.06,3.61Z"/>
        <path class="cls-3" d="M250.54,275.91c-.35,1.77-.73,3.55-1.15,5.35-.5,2.12-2.37,3.57-4.46,3.61-.04,0-.06,0-.1,0-.05,0-.1,0-.15,0-.3,0-.62-.04-.92-.12-2.52-.59-4.08-3.11-3.5-5.63.27-1.15.53-2.3.76-3.44,7.36-34.92,1.04-63.82-5.71-82.13-2.47-6.7-5.17-12.51-7.69-17.29-5.24-9.92-9.71-15.45-9.77-15.54-1.63-2-1.34-4.95.66-6.59,2-1.63,4.95-1.35,6.59.65.06.08.36.45.84,1.08,2.67,3.52,11.1,15.45,18.01,34.06,7.16,19.26,13.88,49.47,6.58,85.99Z"/>
        <path class="cls-3" d="M95.22,225.68c-.8,1.68-2.48,2.66-4.23,2.66-.68,0-1.37-.15-2.02-.46-4.35-2.09-8.46-4.25-12.33-6.51-3.32-1.94-6.46-3.94-9.41-6.01-16.93-11.8-28.01-25.68-33.03-41.44-6.77-21.24-.33-39.32,2.54-45.75.66-1.46,1.12-2.33,1.22-2.49,1.26-2.26,4.11-3.08,6.37-1.82.6.33,1.11.79,1.49,1.31h0c.16.21.29.43.4.66.69,1.34.71,2.98-.06,4.4-.04.07-1.51,2.82-2.93,7.41-1.33,4.31-2.61,10.26-2.61,17.15,0,5.06.69,10.63,2.56,16.44,4.57,14.19,15,26.8,31.11,37.62h0c.25.18.5.34.75.51,5.37,3.56,11.37,6.91,17.97,10.08,2.34,1.11,3.32,3.91,2.2,6.25Z"/>
        <path class="cls-3" d="M136.95,308.56c-.82,1.65-2.48,2.61-4.21,2.61-.7,0-1.41-.16-2.07-.49-3.6-1.78-6.98-3.64-10.18-5.55-29.23-17.52-42.2-39.96-47.96-56.46-5.28-15.15-5.53-27.79-5.31-33.29.07-1.75.19-2.77.21-2.93.31-2.57,2.64-4.4,5.21-4.1.59.07,1.14.25,1.64.51h0c.26.15.52.32.75.51,1.2.98,1.89,2.54,1.69,4.19-.01.13-.32,3.04-.1,7.82.28,5.92,1.38,14.72,4.9,24.62,8.38,23.65,25.88,42.37,52.02,55.65.42.21.84.42,1.27.63,2.32,1.15,3.27,3.96,2.12,6.28Z"/>
        <path class="cls-3" d="M196.49,251.51c-.07,1.72-.22,3.4-.46,5.03-.34,2.33-2.34,4.01-4.63,4.01h0c-.23,0-.45-.02-.69-.05-2.56-.37-4.33-2.75-3.95-5.31.18-1.22.3-2.47.36-3.77.62-12.89-4.55-29.42-15.26-49.09-.08-.15-.16-.29-.25-.45,0,0,0-.02-.01-.02-.95-1.75-1.95-3.52-3-5.32-1.6-2.75-3.3-5.57-5.1-8.44-7.17-11.4-15.93-23.68-26.26-36.76-2.35-2.98-4.79-6.01-7.31-9.07-.86-1.04-1.72-2.09-2.6-3.15-32.58-39.22-66.73-71.07-67.07-71.39-1.89-1.76-2-4.73-.24-6.62,1.76-1.9,4.73-2,6.63-.25.35.32,34.93,32.58,67.9,72.26,16.52,19.88,29.76,38.07,39.7,54.51,2.44,4.04,4.68,7.97,6.72,11.8,10.91,20.45,16.11,37.85,15.53,52.08Z"/>
        <path class="cls-3" d="M172.42,195.4c-.06.02-.12.05-.18.06-1.2.4-2.42.76-3.66,1.07-5.93,1.54-12.24,2.19-18.65,2.19-33.59,0-70.07-17.79-71.95-18.71-2.32-1.15-3.27-3.96-2.13-6.28,1.15-2.32,3.96-3.27,6.28-2.13.5.25,47.8,23.29,81.34,16.49,1.99-.4,3.93-.91,5.81-1.53,1.8-.6,3.7-.04,4.9,1.27.45.47.8,1.05,1.02,1.71.8,2.4-.45,4.98-2.8,5.86Z"/>
        <path class="cls-3" d="M180.96,199.43c-.23.71-.48,1.41-.75,2.1-.72,1.86-2.5,3.01-4.38,3.01-.56,0-1.13-.11-1.68-.32-1-.38-1.78-1.07-2.3-1.9-.08-.15-.16-.29-.25-.45,0,0,0-.02-.01-.02-.53-1.12-.62-2.44-.13-3.68.35-.91.67-1.83.97-2.77.77-2.45,1.36-4.99,1.78-7.57.02-.06.03-.13.04-.2,4.3-26.34-7.69-57.61-7.83-57.97-.94-2.41.25-5.13,2.67-6.06,2.41-.94,5.13.25,6.07,2.67.68,1.75,16.25,42.39,5.82,73.17Z"/>
        <path class="cls-3" d="M140.34,150.67c-1.02.28-2.06.5-3.12.66-1.62.25-3.27.36-4.96.36-21.66,0-47.87-19.05-49.12-19.96-2.09-1.53-2.54-4.47-1-6.56,1.53-2.09,4.46-2.53,6.55-1,7.19,5.27,26.33,16.95,41.23,18.08,2.84.21,5.51.05,7.93-.62,2.5-.69,5.08.78,5.76,3.27.69,2.5-.78,5.08-3.27,5.76Z"/>
        <g>
          <path class="cls-2" d="M241.02,275.68c-3.94.38-7.78,1.35-11.4,2.88-6.14-14.87-18.66-25.09-33.13-27.05.58-14.23-4.62-31.64-15.53-52.08,10.43-30.78-5.14-71.42-5.82-73.17-.94-2.41-3.66-3.61-6.07-2.67-2.41.94-3.6,3.66-2.67,6.06.14.36,12.13,31.64,7.83,57.97-9.94-16.44-23.18-34.63-39.7-54.51-32.97-39.68-67.55-71.94-67.9-72.26-1.9-1.76-4.86-1.65-6.63.25-1.76,1.89-1.65,4.86.24,6.62.35.32,34.49,32.17,67.07,71.39.87,1.05,1.74,2.1,2.6,3.15-14.89-1.12-34.04-12.81-41.23-18.08-2.09-1.53-5.02-1.08-6.55,1-1.53,2.09-1.08,5.02,1,6.56,1.24.91,27.45,19.96,49.12,19.96,1.69,0,3.35-.11,4.96-.36,10.32,13.08,19.09,25.36,26.26,36.76-33.55,6.8-80.85-16.25-81.34-16.49-2.32-1.15-5.13-.19-6.28,2.13-1.14,2.32-.19,5.13,2.13,6.28,1.88.93,38.35,18.71,71.95,18.71,6.41,0,12.72-.64,18.65-2.19,1.05,1.8,2.05,3.57,3,5.32,0,0,0,.02.01.02.07.15.15.3.25.45,10.71,19.67,15.88,36.2,15.26,49.09-5.72.64-11.22,2.58-16.2,5.72l-28.71-25.27-6.19,7.04,27.46,24.17c-9.01,8.94-14.25,21.85-14.25,35.6,0,1.26.05,2.52.14,3.78-3.33-.74-6.75-1.11-10.24-1.11-1.84,0-3.7.11-5.54.32-26.15-13.28-43.65-32-52.02-55.65-3.52-9.91-4.62-18.7-4.9-24.62,3.87,2.26,7.97,4.43,12.33,6.51.66.31,1.34.46,2.02.46,1.75,0,3.43-.98,4.23-2.66,1.12-2.34.13-5.14-2.2-6.25-6.6-3.16-12.6-6.52-17.97-10.08-.23-.19-.49-.36-.75-.5h0c-16.11-10.83-26.54-23.43-31.11-37.62-1.87-5.81-2.56-11.38-2.56-16.44,0-6.89,1.28-12.84,2.61-17.15,1.99,2.37,4.1,4.42,6.29,6.12.86.66,1.86.98,2.87.98,1.4,0,2.78-.63,3.71-1.82,1.58-2.04,1.21-4.99-.83-6.58-3.23-2.51-6.26-6.03-9.05-10.52-.11-.23-.25-.45-.4-.65h0c-8.01-13.29-14.08-34.69-17.78-63.11-2.79-21.38-3.49-41.35-3.66-51.1,10.65,3.24,34.11,10.9,58.46,22.23,42.73,19.9,68.67,41.91,75.01,63.65.73,2.48,3.33,3.91,5.82,3.19,2.48-.73,3.91-3.33,3.18-5.82-1.09-3.73-2.62-7.42-4.6-11.08,6.07,2.02,14.15,5.64,22.29,12.04,21.78,17.17,33.46,46.48,33.78,84.78.02,2.58,2.11,4.65,4.69,4.65h.04c2.59-.02,4.67-2.14,4.65-4.73-.01-1.21-.03-2.41-.06-3.61,2.52,4.78,5.22,10.59,7.69,17.29,6.75,18.31,13.08,47.21,5.71,82.13Z"/>
          <path class="cls-1" d="M221.38,283.25c-4.07,3-7.5,6.75-10.14,11.07-1.93-.24-3.9-.36-5.87-.36-14.47,0-27.89,6.47-36.85,17.56-2.9-2.3-6.03-4.24-9.38-5.78-.37-2.34-.57-4.72-.57-7.1,0-12.35,5.1-23.81,13.71-30.97.74-.25,1.44-.7,2-1.34.13-.15.25-.3.35-.46,5.04-3.5,10.8-5.35,16.75-5.35h0c13.08,0,24.79,9,29.99,22.71Z"/>
          <path class="cls-3" d="M174.64,265.89c-.11.16-.22.31-.35.46-.56.64-1.25,1.08-2,1.34-.49.17-1.01.25-1.52.25-1.1,0-2.2-.38-3.09-1.17l-4.22-3.71-27.46-24.17,6.19-7.04,28.71,25.27,2.96,2.61c1.8,1.58,2.09,4.23.77,6.16Z"/>
        </g>
        <path class="cls-3" d="M514.42,409.44c-5.79,20.56-15.06,37.49-27.38,50.31-4.97,5.17-10.44,9.66-16.38,13.46-5.56,3.56-11.53,6.49-17.9,8.79-.52.19-1.06.28-1.59.28-1.92,0-3.72-1.18-4.41-3.09-.88-2.44.38-5.12,2.82-6,11.31-4.08,21.15-10.28,29.48-18.53.36-.36.72-.72,1.07-1.08,0,0,0,0,.01,0,11.3-11.61,19.73-27.12,25.2-46.42,5.17-18.25,6.18-35.21,6.32-43.65-17.19,4-48.21,13-66.18,24.72-.02.02-.05.03-.07.05-4.56,2.98-8.27,6.13-10.7,9.43-1.53,2.09-4.46,2.53-6.56,1-2.08-1.53-2.53-4.46-1-6.55,1.41-1.92,3.12-3.77,5.09-5.55,2.87-2.61,6.27-5.09,10.04-7.41,26.46-16.37,70.77-25.62,73.08-26.1,1.34-.28,2.73.05,3.81.88,1.08.84,1.74,2.11,1.81,3.47.05,1,1.12,24.76-6.56,52.01Z"/>
        <path class="cls-3" d="M487.36,458.74c-.1.32-.21.66-.32,1.01-2.83,8.73-11.03,28.43-30.82,43.96-18.11,14.21-40.96,21.34-68.2,21.34-11.33,0-23.42-1.23-36.25-3.7-4.67.59-28.2,3.16-54.27-1.37-36.57-6.35-61.17-23.92-71.48-50.95-.59-1.53-1.13-3.09-1.62-4.69-.71-2.29.43-4.71,2.57-5.66.06-.03.12-.05.19-.08.11-.04.22-.08.34-.12,2.47-.77,5.1.62,5.86,3.09.4,1.29.84,2.57,1.31,3.81,9.06,24.2,30.65,39.44,64.24,45.32,27.09,4.75,52.11,1.29,52.36,1.25.52-.07,1.04-.06,1.56.04,41.23,8.08,74.07,2.81,97.61-15.67,9.36-7.34,15.82-15.71,20.22-23.13,4.31-7.26,6.63-13.62,7.74-17.22.15-.49.37-.93.66-1.33.29-.42.66-.79,1.07-1.08,0,0,0,0,.01,0,1.15-.84,2.67-1.14,4.12-.69,2.47.76,3.86,3.39,3.1,5.86Z"/>
        <path class="cls-3" d="M447.45,385.66c-.35,1.1-1.07,1.99-1.97,2.55-.02.02-.05.03-.07.05-1.11.67-2.5.87-3.83.46-.08-.02-3.54-1.09-9.33-2.13-5.59-1-13.37-1.99-22.38-1.99-2.67,0-5.46.09-8.33.29-23.3,1.61-43.35,9.6-59.83,23.81-.22.19-.43.37-.64.56,0,0,0,0,0,0-4.41,3.87-8.56,8.19-12.45,12.96-.93,1.14-2.28,1.72-3.64,1.72-1.04,0-2.09-.35-2.96-1.05-2-1.63-2.31-4.59-.67-6.59,1.87-2.3,3.78-4.48,5.73-6.53,3.19-3.38,6.46-6.43,9.79-9.2,21.97-18.27,46.29-23.87,64.39-25.06,19.79-1.31,35.51,2.2,41.03,3.66,1.25.33,1.97.56,2.11.6,2.47.78,3.84,3.42,3.06,5.88Z"/>
        <path class="cls-3" d="M342.97,406.14c-.15,1-.6,1.87-1.27,2.55-.19.21-.41.4-.64.56,0,0,0,0,0,0-.95.68-2.16,1.01-3.41.82-.05,0-2.69-.38-7.16-.38-1.04,0-2.19.02-3.42.07-4.63.19-10.54.8-17.2,2.33-21.22,4.87-39.7,16.3-54.92,33.98-.08.09-.16.18-.24.28-.56.66-1.27,1.12-2.03,1.38-.49.17-1.01.26-1.53.26-.76,0-1.53-.19-2.23-.57-.29-.15-.56-.33-.82-.56-1.74-1.49-2.12-3.99-1.01-5.91.15-.24.31-.47.5-.7,4.67-5.47,9.5-10.18,14.35-14.25,16.71-14.02,33.74-20.33,46.28-23.15,13.59-3.06,24.24-2.67,28.64-2.29,1.3.11,2.06.22,2.18.24,2.56.39,4.32,2.77,3.94,5.33Z"/>
        <path class="cls-3" d="M476.79,408.92c-.72.65-18.07,16.11-55.58,29.73-21.06,7.65-44.36,13.19-69.3,16.51-.94.12-1.88.25-2.83.36-.19.02-.37.05-.56.06-.12.02-.25.03-.37.04-7.29.9-14.73,1.61-22.29,2.13-5.1.35-10.25.62-15.47.79-5.33.19-10.72.28-16.16.28-12.21,0-24.69-.46-37.4-1.36-3.39-.24-6.78-.52-10.21-.83-.75-.06-1.5-.13-2.25-.2-1.21-.11-2.27-.68-3.03-1.51-.02-.02-.03-.04-.05-.05-.19-.21-.35-.43-.49-.66-.05-.08-.1-.17-.15-.26-.05-.09-.09-.19-.13-.29-.04-.08-.08-.16-.11-.25,0-.01-.01-.03-.02-.04-.05-.12-.08-.25-.12-.37-.03-.12-.06-.24-.08-.36-.03-.14-.05-.28-.06-.42-.02-.14-.02-.28-.02-.42,0-.09,0-.18,0-.27,0-.12.02-.23.04-.35.01-.09.02-.19.05-.29.03-.15.06-.29.11-.43.11-.39.28-.77.49-1.12.02-.04.05-.08.07-.11.07-.11.14-.21.21-.3.04-.05.08-.09.12-.14.02-.03.05-.06.08-.09.02-.02.04-.05.06-.07,0,0,.01-.02.02-.02.02-.02.03-.03.05-.04.01-.02.03-.04.05-.05.05-.05.09-.1.15-.15.01-.02.03-.03.04-.04.02-.02.04-.04.06-.06.25-.22.5-.4.77-.55.1-.06.21-.12.31-.16.12-.06.26-.12.39-.16.13-.05.26-.09.4-.13.13-.04.27-.06.4-.09.14-.02.28-.04.42-.05.28-.03.56-.03.85,0,.02,0,.03,0,.05,0,1.21.11,2.41.22,3.61.32,1.26.11,2.51.22,3.76.31.4.04.8.07,1.19.09,38.48,3,71.2,1.48,98.35-2.23,11.18-1.53,21.42-3.43,30.72-5.55,13.71-3.12,25.39-6.69,35.07-10.21,35.8-13,52.33-27.72,52.49-27.87,1.92-1.74,4.89-1.59,6.62.33s1.59,4.89-.33,6.62Z"/>
        <path class="cls-3" d="M405.55,407.03c-.16.46-4.12,11.35-13.05,22.75-2.99,3.83-6.19,7.25-9.57,10.26-9.19,8.19-19.7,13.33-31.03,15.11-1.12.18-2.25.32-3.39.43-.12.02-.25.03-.37.04-.15.02-.29.02-.43.02-2.4,0-4.43-1.83-4.66-4.26-.24-2.57,1.66-4.86,4.24-5.09,1.68-.15,3.32-.39,4.91-.7,31.39-6.15,44.38-41.35,44.51-41.73.87-2.44,3.56-3.7,5.99-2.83s3.7,3.56,2.83,5.99Z"/>
        <path class="cls-3" d="M405.82,487.27c0,2.59-2.1,4.69-4.69,4.69-1.86,0-45.92-.38-90.74-33.42-.27-.19-.54-.4-.82-.6-2.08-1.55-2.51-4.49-.96-6.56,1.55-2.07,4.49-2.5,6.56-.95,3.57,2.66,7.14,5.1,10.69,7.33,38.84,24.52,74.88,24.83,75.27,24.83,2.59,0,4.69,2.1,4.69,4.69Z"/>
        <g>
          <path class="cls-2" d="M511.65,363.49c-.14,8.44-1.15,25.4-6.32,43.65-5.47,19.3-13.9,34.82-25.2,46.42,0,0,0,0-.01,0-.41.3-.77.66-1.07,1.08-8.33,8.25-18.17,14.45-29.48,18.53-2.44.88-3.7,3.56-2.82,6,.69,1.91,2.49,3.09,4.41,3.09.53,0,1.07-.09,1.59-.28,6.37-2.3,12.34-5.24,17.9-8.79-4.4,7.42-10.87,15.79-20.22,23.13-23.54,18.48-56.39,23.75-97.61,15.67-.52-.1-1.04-.11-1.56-.04-.25.04-25.27,3.49-52.36-1.25-33.59-5.88-55.17-21.12-64.24-45.32,3.59-1.9,6.92-4.2,9.96-6.88,31.18,33.06,61.45,33.46,62.77,33.46,2.58,0,4.67-2.09,4.68-4.67,0-2.58-2.08-4.68-4.66-4.7-.27,0-24.31-.51-50.58-25.13,12.71.91,25.19,1.36,37.4,1.36,5.44,0,10.83-.09,16.16-.28,44.82,33.04,88.88,33.42,90.74,33.42,2.59,0,4.69-2.1,4.69-4.69s-2.1-4.69-4.69-4.69c-.39,0-36.44-.31-75.27-24.83,7.69-.52,15.25-1.25,22.66-2.17,1.14-.11,2.27-.25,3.39-.43,24.94-3.32,48.24-8.86,69.3-16.51,37.51-13.62,54.86-29.08,55.58-29.73,1.92-1.73,2.07-4.7.33-6.62s-4.7-2.07-6.62-.33c-.16.15-16.69,14.87-52.49,27.87-9.68,3.52-21.37,7.09-35.07,10.21,3.37-3.01,6.57-6.44,9.57-10.26,8.92-11.41,12.88-22.3,13.05-22.75.87-2.44-.39-5.12-2.83-5.99s-5.12.39-5.99,2.83c-.13.37-13.12,35.58-44.51,41.73-27.15,3.71-59.87,5.23-98.35,2.23.38-.58.74-1.16,1.08-1.75,15.22-17.67,33.69-29.1,54.92-33.98,6.66-1.53,12.57-2.14,17.2-2.33-1.95,2.05-3.85,4.23-5.73,6.53-1.63,2-1.33,4.96.67,6.59.87.71,1.92,1.05,2.96,1.05,1.36,0,2.71-.59,3.64-1.72,3.88-4.77,8.04-9.09,12.45-12.96,0,0,0,0,0,0,.23-.16.45-.35.64-.56,16.48-14.21,36.53-22.2,59.83-23.81,2.87-.2,5.66-.29,8.33-.29,9.01,0,16.78.98,22.38,1.99-1.96,1.79-3.68,3.64-5.09,5.55-1.53,2.09-1.08,5.02,1,6.55,2.09,1.53,5.02,1.09,6.56-1,2.43-3.3,6.14-6.46,10.7-9.43.02-.02.05-.03.07-.05,17.96-11.72,48.99-20.72,66.18-24.72Z"/>
          <path class="cls-3" d="M312.07,487.29c-.01,2.58-2.1,4.67-4.68,4.67-1.32,0-31.59-.39-62.77-33.46-1.09-1.15-2.18-2.35-3.27-3.59-.02-.02-.03-.04-.05-.05-.19-.21-.35-.43-.49-.66-.05-.08-.1-.17-.15-.26-.05-.09-.09-.19-.13-.29-.04-.08-.08-.16-.11-.25,0-.01-.01-.03-.02-.04-.05-.12-.08-.25-.12-.37-.03-.12-.06-.24-.08-.36-.03-.14-.05-.28-.06-.42-.02-.14-.02-.28-.02-.42,0-.09,0-.18,0-.27,0-.12.02-.23.04-.35.01-.09.02-.19.05-.29.03-.15.06-.29.11-.43.11-.39.28-.77.49-1.12.02-.04.05-.08.07-.11.07-.11.14-.21.21-.3.02-.04.05-.06.08-.1.01-.01.02-.03.04-.04.02-.03.05-.06.08-.09.02-.02.04-.05.06-.07,0,0,.01-.02.02-.02.02-.02.03-.03.05-.04.01-.02.03-.04.05-.05.05-.05.09-.1.15-.15.01-.02.03-.03.04-.04.02-.02.04-.04.06-.06.25-.22.5-.4.77-.55.1-.06.21-.12.31-.16.12-.06.26-.12.39-.16.13-.05.26-.09.4-.13.13-.04.27-.06.4-.09.14-.02.28-.04.42-.05.28-.02.57-.02.85,0,.02,0,.03,0,.05,0,1.13.12,2.22.64,3.03,1.56.92,1.04,1.83,2.05,2.75,3.03,1.93,2.05,3.85,3.97,5.76,5.76,26.26,24.62,50.31,25.13,50.58,25.13,2.58.02,4.66,2.13,4.66,4.7Z"/>
        </g>
        <path class="cls-3" d="M521.01,127.6c-1.24,3.7-2.68,7.28-4.34,10.71-2.38,5-5.18,9.71-8.4,14.12-7.15,9.81-16.33,18.18-27.49,25.03-.77.46-1.61.69-2.44.69-1.58,0-3.12-.8-4-2.24-1.35-2.21-.66-5.1,1.55-6.45,13.97-8.56,24.43-19.6,31.35-33.05.26-.5.52-1.01.76-1.53,0,0,0,0,0,0,8.46-17.32,11.21-38.52,8.17-63.46-3.29-26.97-12.67-50.45-16.64-59.49-5.05,2.31-14.43,7.33-24.24,16.38-8.17,7.53-15,16.2-20.44,25.95-.21.37-.42.74-.62,1.11-7.09,13.03-11.76,27.97-13.97,44.68-.34,2.57-2.69,4.37-5.25,4.03-2.57-.33-4.38-2.69-4.04-5.26,1.81-13.73,5.16-25.61,9.37-35.83,2.12-5.15,4.46-9.88,6.93-14.21,6.96-12.2,14.95-21.25,22.03-27.71,15.9-14.52,30.53-19.44,31.14-19.64,2.21-.73,4.62.28,5.66,2.37.61,1.22,14.99,30.48,19.37,66.48,2.6,21.38,1.1,40.66-4.48,57.31Z"/>
        <path class="cls-3" d="M504.58,189.67c-20.39,27.71-61.89,42.96-123.4,45.32-.14.01-.28.02-.41.02-.16,0-.31,0-.46-.02-.12-.01-.25-.03-.37-.05-.08-.01-.17-.03-.25-.05-.08-.02-.15-.04-.22-.06-.05-.02-.11-.04-.16-.05-.08-.02-.16-.05-.24-.09-.05-.02-.09-.04-.13-.06-.09-.04-.18-.07-.26-.12-.05-.02-.09-.05-.14-.08-.07-.04-.14-.08-.21-.12-.08-.05-.15-.09-.22-.15-.02-.01-.05-.03-.07-.05-.08-.05-.16-.11-.24-.18-.05-.03-.09-.07-.13-.12-.06-.05-.12-.11-.17-.16-.09-.09-.19-.18-.28-.29s-.18-.22-.26-.33c-.19-.26-.35-.54-.47-.85-.05-.11-.09-.22-.13-.33-.05-.13-.09-.28-.12-.42,0-.02-.02-.05-.02-.08-.06-.28-.1-.56-.11-.86-.1-2.58,1.92-4.76,4.51-4.86,1.4-.05,2.79-.11,4.17-.18,30.38-1.47,55.7-6.32,75.29-14.42,16.37-6.77,28.81-15.82,36.97-26.91,8.4-11.41,10.84-23.06,11.24-31.68.37-8.01-1.03-13.39-1.05-13.5-.23-.86-.21-1.73.02-2.52.16-.56.42-1.07.76-1.53,0,0,0,0,0,0,.6-.8,1.46-1.41,2.51-1.69,2.5-.68,5.07.8,5.75,3.3.04.15.21.78.41,1.82,1.29,6.53,4.18,29.25-12.09,51.35Z"/>
        <path class="cls-3" d="M454.85,54.27c-.15.4-.36.77-.62,1.11-.53.72-1.27,1.29-2.18,1.61-.1.03-4.8,1.76-11.71,6.02-8.26,5.09-19.68,13.77-30.17,27.48-24.95,32.6-33.7,79.19-25.4,134.96.2,1.37.42,2.74.64,4.12.41,2.55-1.32,4.96-3.88,5.38-.12.02-.23.04-.35.04-.14.01-.28.02-.41.02-.16,0-.31,0-.46-.02-.12-.01-.25-.03-.37-.05-.08-.01-.17-.03-.25-.05-.08-.02-.15-.04-.22-.06-.05-.02-.11-.04-.16-.05-.08-.02-.16-.05-.24-.09-.05-.02-.09-.04-.13-.06-.09-.04-.18-.07-.26-.12-.05-.02-.09-.05-.14-.08-.07-.04-.14-.08-.21-.12-.08-.05-.15-.09-.22-.15-.02-.01-.05-.03-.07-.05-.08-.05-.16-.11-.24-.18-.05-.03-.09-.07-.13-.12-.06-.05-.12-.1-.17-.16-.09-.09-.19-.18-.28-.29s-.18-.22-.26-.33c-.19-.26-.35-.54-.47-.85-.05-.11-.09-.22-.13-.33-.05-.13-.09-.28-.12-.42,0-.02-.02-.05-.02-.08-.02-.09-.04-.19-.06-.28-5.46-33.61-5.11-64.1,1.03-90.63,4.96-21.41,13.68-40.29,25.92-56.12,18.08-23.4,38.31-33.07,44.17-35.51.93-.39,1.5-.6,1.64-.64,2.44-.87,5.12.41,5.99,2.85.39,1.1.34,2.25-.05,3.26Z"/>
        <path class="cls-2" d="M508.27,152.44c-.4,8.61-2.84,20.26-11.24,31.68-8.16,11.09-20.59,20.15-36.97,26.91-19.59,8.1-44.91,12.95-75.29,14.42-8.3-55.77.45-102.36,25.4-134.96,10.49-13.71,21.91-22.4,30.17-27.48-4.21,10.22-7.56,22.1-9.37,35.83-.34,2.57,1.46,4.92,4.04,5.26,2.57.34,4.92-1.46,5.25-4.03,2.2-16.71,6.88-31.65,13.97-44.68.26-.34.47-.71.62-1.11,5.44-9.75,12.27-18.41,20.44-25.95,9.81-9.05,19.19-14.07,24.24-16.38,3.98,9.04,13.36,32.51,16.64,59.49,3.04,24.93.29,46.13-8.17,63.46,0,0,0,0,0,0-.35.46-.6.97-.76,1.53-6.92,13.45-17.39,24.48-31.35,33.05-2.21,1.35-2.9,4.24-1.55,6.45.88,1.44,2.42,2.24,4,2.24.83,0,1.68-.23,2.44-.69,11.15-6.84,20.34-15.21,27.49-25.03Z"/>
        <g>
          <path class="cls-2" d="M331.19,267.39c-5.06-9.61-11.41-19.09-18.02-28.97-16.34-24.4-33.24-49.63-33.49-81.29-.26-33.14,18.27-68.96,56.55-109.17-9.54,44.71-4.8,75.41-.19,105.21,5.14,33.21,10.02,64.71-4.85,114.23Z"/>
          <path class="cls-3" d="M345.31,151.73c-5.01-32.36-10.19-65.83,3.99-117.85.56-2.04-.32-4.19-2.14-5.27-1.82-1.07-4.14-.79-5.65.69-48.21,47-71.5,88.84-71.2,127.91.27,34.46,18.76,62.08,35.07,86.43,8.85,13.21,17.2,25.69,22.27,38.3.71,1.78,2.44,2.94,4.35,2.94h.13c1.96-.05,3.67-1.31,4.31-3.17,19.96-58.34,14.32-94.75,8.88-129.97ZM331.19,267.39c-5.06-9.61-11.41-19.09-18.02-28.97-16.34-24.4-33.24-49.63-33.49-81.29-.26-33.14,18.27-68.96,56.55-109.17-9.54,44.71-4.8,75.41-.19,105.21,5.14,33.21,10.02,64.71-4.85,114.23Z"/>
        </g>
        <path class="cls-3" d="M521.8,242.67c-1.82-.72-3.9-.23-5.21,1.24-12.07,13.5-26.7,19.26-48.92,19.26-9.54,0-19.65-1-30.36-2.06-11.92-1.18-24.23-2.4-37.17-2.4-26.93,0-49.31,5.52-70.45,17.39-1.48.83-2.4,2.4-2.39,4.1,0,1.69.92,3.26,2.4,4.08,38.66,21.52,74.53,32.44,106.63,32.44,57.15,0,87.75-35.01,88.43-69.6.04-1.96-1.15-3.74-2.97-4.45ZM436.35,307.35c-28.36,0-60.06-9.1-94.33-27.07,17.46-8.29,36.16-12.19,58.14-12.19,12.47,0,24.56,1.2,36.24,2.35,10.94,1.08,21.28,2.1,31.28,2.1,13.69,0,30.55-1.7,45.96-13.23-6.83,25.45-33.23,48.03-77.29,48.03Z"/>
        <path class="cls-2" d="M513.64,259.32c-6.83,25.45-33.23,48.03-77.29,48.03-28.36,0-60.06-9.1-94.33-27.07,17.46-8.29,36.16-12.19,58.14-12.19,12.47,0,24.56,1.2,36.24,2.35,10.94,1.08,21.28,2.1,31.28,2.1,13.69,0,30.55-1.7,45.96-13.23Z"/>
        <g>
          <path class="cls-3" d="M61.08,342.98c-10.45-44.17-28.8-80.34-29.57-81.86-1.04-2.03-3.4-3.02-5.58-2.34-2.19.69-3.55,2.85-3.23,5.12,2.89,20.78-3.58,45.48-10.43,71.63C5.89,359.85-.7,384.98.06,408.59c.83,26,10.61,46.38,29.86,62.18.42.35.86.69,1.29,1.03.62.49,1.24.98,1.87,1.46.84.63,1.83.95,2.82.95.09,0,.18,0,.26-.01,1.03-.05,2.05-.46,2.86-1.19,1.15-1.03,2.26-2.09,3.33-3.18,4.19-4.22,7.87-8.89,11.03-14,2.68-4.31,4.99-8.93,6.93-13.86,3.48-8.81,5.79-18.6,6.91-29.32,2.1-20.1.03-43.55-6.16-69.67ZM21.33,337.91c4.79-18.31,9.41-35.93,10.93-52.42,6.16,14.73,14.15,36.19,19.7,59.64,8.72,36.82,12.92,85.77-14.01,115.73-.76.83-1.53,1.65-2.33,2.45-3.23-2.68-6.1-5.46-8.65-8.34-28.02-31.66-16.67-75.01-5.64-117.07Z"/>
          <path class="cls-2" d="M37.95,460.87c-7.6-30.23-6.92-55.27-4.88-71.38,2.38-18.77,7.07-29.82,7.14-29.96,1.03-2.37-.06-5.13-2.43-6.16s-5.13.05-6.17,2.43c-.21.49-5.2,12.1-7.78,32.09-2.01,15.53-2.82,38.92,3.15,67.1-28.02-31.66-16.67-75.01-5.64-117.07,4.79-18.31,9.41-35.93,10.93-52.42,6.16,14.73,14.15,36.19,19.7,59.64,8.72,36.82,12.92,85.77-14.01,115.73Z"/>
        </g>
        <path class="cls-3" d="M270.27,343.13c-1.13,0-2.26-.4-3.16-1.22-1.61-1.46-1.96-3.79-1-5.63,1.03-2.09,3.47-3.13,5.73-2.36,2.45.84,3.75,3.51,2.9,5.96-.22.65-.57,1.23-1.01,1.72-.93,1.01-2.19,1.53-3.47,1.53Z"/>
        <g>
          <path class="cls-1" d="M274.82,314.87c0,3.82-.7,7.5-2.09,10.97,0,0,0,.01,0,.02-.05.12-.1.25-.14.37-.98,2.42-2.28,4.67-3.86,6.74-3.58-1.05-7.28-1.59-11.04-1.59-1.94,0-3.89.15-5.81.43-2.55-12.5-9.99-23.38-20.91-30.36-3.12-2.02-6.44-3.64-9.93-4.86,2.28-2.97,5.1-5.49,8.35-7.44,4.59-2.78,9.88-4.26,15.28-4.29.05,0,.1,0,.15,0,.04,0,.06,0,.1,0,16.5.06,29.9,13.49,29.9,30Z"/>
          <path class="cls-3" d="M477.7,92.03c-.23.41-12.53,21.49-30.28,49.59-2.65,4.19-5.41,8.54-8.28,12.99-7.46,11.6-15.6,23.95-24.03,36.25-.08.12-.16.25-.25.36-2.88,4.19-5.78,8.38-8.71,12.53-2.31,3.27-4.63,6.53-6.95,9.73-2.86,3.95-5.72,7.84-8.58,11.64-1.06,1.42-2.13,2.82-3.19,4.22-.95,1.25-1.9,2.48-2.84,3.68-.49.64-.97,1.27-1.46,1.89-9.08,11.65-17.4,21.42-24.9,29.26-4.24,4.41-8.21,8.21-11.92,11.41-4.31,3.7-8.26,6.57-11.85,8.59-.07.04-.13.08-.2.12-.04.02-.09.05-.13.07-.31.18-.62.35-.93.53-.4.22-.8.45-1.2.68-26.11,15.03-41.99,32.28-50.85,44.41,0,0,0,.01,0,.02-.08.11-.16.22-.24.33-.84,1.25-2.27,2.08-3.89,2.08-2.59,0-4.69-2.09-4.69-4.67v-.02c0-.5.08-.98.23-1.45.04-.13.09-.25.14-.37,0-.01,0-.02,0-.02.13-.32.3-.62.51-.9,2.86-3.96,6.44-8.45,10.82-13.24,9.68-10.57,23.32-22.59,41.99-33.51.6-.36,1.22-.71,1.83-1.06.6-.35,1.22-.69,1.83-1.04,2.48-1.39,5.18-3.25,8.1-5.58.96-.77,1.95-1.6,2.96-2.47,9.63-8.35,21.36-21.39,35.06-38.99.43-.54.86-1.09,1.28-1.65.95-1.23,1.91-2.48,2.88-3.75,1.28-1.68,2.55-3.37,3.84-5.08,7.54-10.08,15.14-20.77,22.53-31.52,3.15-4.58,6.26-9.17,9.31-13.74,29.5-44.1,53.59-85.42,53.92-85.98,1.3-2.24,4.17-3,6.4-1.7,2.24,1.31,3,4.17,1.7,6.41Z"/>
        </g>
        <path class="cls-3" d="M4.85,525.74c-.61,0-1.23-.12-1.83-.37-2.38-1.01-3.5-3.76-2.49-6.14,6.86-16.19,16.24-31.6,27.88-45.79,1.64-2,4.6-2.29,6.6-.65,2,1.64,2.29,4.59.65,6.6-11.07,13.5-19.98,28.13-26.5,43.5-.76,1.79-2.49,2.86-4.32,2.86Z"/>
        <path class="cls-3" d="M111.13,421.34c-.08.04-2.24.94-5.91,2.77-9.06,4.52-27.34,14.69-46.33,31.36-4.49,3.94-9.02,8.25-13.47,12.93-.15.16-.31.3-.47.43,0,0-.02,0-.02.01-.2.16-.4.3-.62.42,0,0,0,0,0,0-.01,0-.02.01-.03.02-.59.32-1.24.51-1.89.55-.12.01-.23.02-.35.02-.71,0-1.41-.16-2.06-.47-.42-.21-.81-.48-1.17-.82-1.76-1.67-1.93-4.39-.47-6.26.09-.12.2-.25.31-.36.13-.14.26-.28.4-.42,7.11-7.43,14.34-13.92,21.31-19.54,19.93-16.08,37.74-25,44.45-28.09,1.6-.73,2.57-1.13,2.79-1.22,2.4-.98,5.13.16,6.12,2.55.98,2.4-.16,5.13-2.55,6.12Z"/>
        <g>
          <path class="cls-3" d="M87.94,472.28c-3.52-.21-6.97-.33-10.37-.37-1.01-.01-1.95-.34-2.71-.9,5.2,4.56,8.49,11.26,8.49,18.71,0,2.61-.4,5.12-1.15,7.49.72-2.1,2.85-3.45,5.12-3.11.09.01,1.94.28,5.04.61.24-1.63.36-3.29.36-4.99,0-6.37-1.75-12.33-4.78-17.44ZM87.94,472.28c-2.23-3.76-5.16-7.06-8.61-9.71-5.68-4.38-12.76-7.01-20.44-7.11-.15,0-.29,0-.43,0-1.72,0-3.4.13-5.06.37-5.28.78-10.17,2.77-14.38,5.68-.26.18-.52.36-.77.55-2.94,2.14-5.51,4.75-7.62,7.69-.25.33-.48.67-.71,1.01-.65.98-1.25,1.99-1.8,3.03,0,0,0,0,0,.01-2.5,4.76-3.92,10.17-3.92,15.91,0,1.61.11,3.18.33,4.73,2.31,16.66,16.64,29.54,33.94,29.54,1.65,0,3.27-.12,4.86-.35,4.22-.6,8.18-1.97,11.76-3.97,6.4-3.56,11.55-9.12,14.6-15.82,1.29-2.86,2.21-5.93,2.68-9.15.24-1.63.36-3.29.36-4.99,0-6.37-1.75-12.33-4.78-17.44ZM63.75,514.04c-.21.05-.42.09-.63.13-1.51.29-3.07.44-4.66.44-13.73,0-24.89-11.17-24.89-24.89,0-8.45,4.24-15.93,10.7-20.44,0,0,.02-.01.03-.02,0,0,0,0,0,0,.21-.14.41-.28.62-.42,0,0,.02-.01.02-.01,3.89-2.53,8.54-4,13.52-4,6.01,0,11.53,2.14,15.84,5.69.01.01.02.02.03.03.18.15.36.3.54.46,5.2,4.56,8.49,11.26,8.49,18.71,0,2.61-.4,5.12-1.15,7.49-2.67,8.44-9.71,14.94-18.45,16.84ZM87.94,472.28c-3.52-.21-6.97-.33-10.37-.37-1.01-.01-1.95-.34-2.71-.9,5.2,4.56,8.49,11.26,8.49,18.71,0,2.61-.4,5.12-1.15,7.49.72-2.1,2.85-3.45,5.12-3.11.09.01,1.94.28,5.04.61.24-1.63.36-3.29.36-4.99,0-6.37-1.75-12.33-4.78-17.44Z"/>
          <path class="cls-1" d="M74.86,471.01c-.18-.16-.36-.31-.54-.46-.01,0-.02-.02-.03-.03-4.31-3.56-9.82-5.69-15.84-5.69-4.98,0-9.63,1.46-13.52,4,0,0-.02,0-.02.01-.2.16-.4.3-.62.42,0,0,0,0,0,0-.01,0-.02.01-.03.02-6.46,4.51-10.7,11.99-10.7,20.44,0,13.73,11.17,24.89,24.89,24.89,1.59,0,3.15-.15,4.66-.44.21-.04.42-.08.63-.13,8.74-1.9,15.78-8.4,18.45-16.84.74-2.37,1.15-4.88,1.15-7.49,0-7.45-3.29-14.14-8.49-18.71ZM66.62,503.93c-.91.89-2.09,1.34-3.27,1.34s-2.44-.47-3.35-1.42c-1.81-1.85-1.78-4.82.08-6.63,2.3-2.24-2.03-9.39-5.09-12.75-1.74-1.92-1.59-4.88.32-6.62,1.92-1.74,4.88-1.6,6.62.32,5.42,5.98,12.53,18.13,4.7,25.77Z"/>
        </g>
        <path class="cls-3" d="M415.63,290.45c-.57,0-1.16-.11-1.72-.33-11.45-4.53-62.99-5.33-81.89-5.24h-.02c-1.46,0-2.84-.68-3.72-1.84-.89-1.16-1.19-2.68-.8-4.09,5.5-19.94-12.32-101.17-19.66-130.78-.62-2.51.91-5.05,3.42-5.68,2.52-.62,5.05.91,5.68,3.42.07.27,6.76,27.38,12.5,57.26,6.67,34.7,9.38,58.96,8.1,72.34,17.47.05,66.64.68,79.83,5.9,2.41.95,3.58,3.68,2.63,6.08-.73,1.84-2.49,2.96-4.36,2.96Z"/>
        <path class="cls-3" d="M33.07,389.49c-2.04,16.11-2.72,41.15,4.88,71.38.1.4.2.8.3,1.2.02.08.04.15.06.23.46,1.8.95,3.61,1.48,5.45.16.54.21,1.1.16,1.63-.13,1.9-1.44,3.61-3.38,4.17-.24.07-.49.12-.73.15-.19.02-.37.04-.56.04-1.51,0-2.94-.74-3.81-1.96-.3-.42-.54-.9-.7-1.44-.05-.19-.11-.38-.16-.57-1.44-5.06-2.65-9.98-3.66-14.77-5.96-28.18-5.16-51.57-3.15-67.1,2.58-19.98,7.57-31.6,7.78-32.09,1.04-2.37,3.8-3.46,6.17-2.43s3.46,3.79,2.43,6.16c-.06.14-4.76,11.19-7.14,29.96Z"/>
        <path class="cls-3" d="M204.91,488.55c-4.12,14.66-25.24,30.91-52.54,40.43-14.37,5.02-29.09,7.64-42.81,7.64-1.16,0-2.3-.02-3.44-.06-16.55-.54-30.94-4.89-42.8-12.93-.51-.35-1.02-.7-1.52-1.05-1.26-.84-2.09-2.27-2.09-3.9,0-2.15,1.44-3.97,3.42-4.52.21-.04.42-.08.63-.13.21-.03.42-.04.63-.04.98,0,1.97.31,2.77.88,2.48,1.79,5.13,3.39,7.93,4.79,19.61,9.81,46.57,10.11,74.2.47,20.66-7.21,38.17-18.99,44.52-29.49-1.8-.39-3.59-.77-5.35-1.15-39.79-8.58-72.15-15.57-100.51-17.22-3.52-.21-6.97-.33-10.37-.37-1.01-.01-1.95-.34-2.71-.9-.18-.16-.36-.31-.54-.46-.01,0-.02-.02-.03-.03-.85-.86-1.37-2.04-1.35-3.35.02-2.57,2.11-4.64,4.68-4.64h.05c.55,0,1.1.01,1.66.03,31.36.57,66.64,8.18,111.1,17.77,3.59.77,7.24,1.56,10.96,2.36,1.27.28,2.36,1.05,3.03,2.16.67,1.11.84,2.45.49,3.69Z"/>
        <g>
          <path class="cls-2" d="M193.8,490.66c-6.36,10.49-23.87,22.27-44.52,29.49-27.63,9.64-54.59,9.34-74.2-.47,6.4-3.56,11.55-9.12,14.6-15.82,4.89.56,14.09,1.42,24.8,1.42,8,0,16.85-.47,25.4-1.91,2.55-.43,4.27-2.85,3.84-5.4-.43-2.55-2.85-4.28-5.4-3.84-17.49,2.94-36.97,1.53-45.96.59.24-1.63.36-3.29.36-4.99,0-6.37-1.75-12.33-4.78-17.44,28.36,1.65,60.72,8.64,100.51,17.22,1.77.38,3.55.77,5.35,1.15Z"/>
          <path class="cls-3" d="M139.88,503.36c-8.54,1.44-17.39,1.91-25.4,1.91-10.71,0-19.91-.86-24.8-1.42-2.17-.25-3.49-.45-3.73-.48-2.56-.38-4.33-2.77-3.95-5.33.04-.29.11-.57.21-.84.72-2.1,2.85-3.45,5.12-3.11.09.01,1.94.28,5.04.61,8.99.94,28.47,2.35,45.96-.59,2.55-.43,4.97,1.29,5.4,3.84.43,2.55-1.29,4.97-3.84,5.4Z"/>
        </g>
        <path class="cls-3" d="M165.17,439.75c-.84.64-1.83.94-2.81.94-1.42,0-2.83-.64-3.75-1.87-1.56-2.07-1.14-5,.93-6.56,7.85-5.91,5.21-17.73,5.19-17.86-.59-2.52.98-5.04,3.5-5.62,2.52-.59,5.04.99,5.62,3.51.17.73,3.99,17.93-8.68,27.46Z"/>
        <g>
          <path class="cls-1" d="M251.14,406.74c-3.51-11.51-11.76-21.07-22.67-26.23-.08-.04-.16-.08-.25-.12-1.99-.95-4.12-1.74-6.37-2.37-3.81-1.09-7.76-1.63-11.72-1.63-8.06,0-15.9,2.24-22.67,6.49-.04.02-.08.05-.12.08-1.32.83-2.6,1.72-3.8,2.67,7.76,8.2,12.52,19.24,12.52,31.39,0,13.37-5.78,25.43-14.97,33.79,7.86,7.25,18.2,11.32,29.03,11.32,5.85,0,11.52-1.16,16.83-3.44.06-.03.12-.05.19-.08,5.33-2.3,10.04-5.59,14.02-9.78.01-.01.02-.03.04-.04.02-.03.05-.06.08-.09.02-.02.04-.05.06-.07,0,0,.01-.02.02-.02.02-.02.03-.03.05-.04.01-.02.03-.04.05-.05.05-.05.09-.11.15-.15.01-.02.03-.03.04-.04,2.11-2.29,3.94-4.76,5.44-7.35,3.87-6.55,5.91-14.04,5.91-21.7,0-4.25-.63-8.47-1.86-12.51ZM239.64,431.44c-.7,1.88-2.49,3.05-4.39,3.05-.55,0-1.1-.1-1.65-.3-2.43-.91-3.65-3.61-2.74-6.03,5.49-14.66-4.77-24.74-5.21-25.16-1.86-1.79-1.94-4.75-.16-6.62,1.78-1.87,4.72-1.96,6.6-.2.63.59,15.28,14.65,7.56,35.27Z"/>
          <path class="cls-3" d="M239.64,431.44c-.7,1.88-2.49,3.05-4.39,3.05-.55,0-1.1-.1-1.65-.3-2.43-.91-3.65-3.61-2.74-6.03,5.49-14.66-4.77-24.74-5.21-25.16-1.86-1.79-1.94-4.75-.16-6.62,1.78-1.87,4.72-1.96,6.6-.2.63.59,15.28,14.65,7.56,35.27Z"/>
        </g>
        <g>
          <path class="cls-1" d="M243.32,337.96s0-.04,0-.06c0-.05,0-.09,0-.13,0-.02,0-.04,0-.06h0c-1.14-11.7-7.48-22.02-17.41-28.36-3.95-2.56-8.3-4.32-12.94-5.26-.04,0-.08-.02-.12-.02-.05-.01-.09-.02-.14-.03-2.38-.47-4.84-.7-7.32-.7-11.89,0-22.89,5.45-30.08,14.73,5.08,5.97,8.59,13.05,10.23,20.7.7,3.25,1.06,6.62,1.06,10.02,0,7.73-1.87,15.27-5.43,22.05,1.17.98,2.41,1.87,3.7,2.69,7.69-4.27,16.37-6.53,25.29-6.53,4.83,0,9.63.67,14.27,1.99,1.82.5,3.59,1.11,5.28,1.79,6.87-5.67,11.49-13.47,13.13-22.22.45-2.35.67-4.75.67-7.13,0-1.08-.06-2.21-.17-3.48ZM227.32,351.87c-.75,1.8-2.5,2.89-4.33,2.89-.6,0-1.21-.12-1.8-.36-2.39-1-3.52-3.74-2.53-6.13,1.01-2.44-.1-12.07-1.77-19.54-.57-2.53,1.02-5.03,3.54-5.59,2.52-.57,5.03,1.02,5.6,3.54.97,4.3,3.92,18.83,1.28,25.19Z"/>
          <path class="cls-3" d="M227.32,351.87c-.75,1.8-2.5,2.89-4.33,2.89-.6,0-1.21-.12-1.8-.36-2.39-1-3.52-3.74-2.53-6.13,1.01-2.44-.1-12.07-1.77-19.54-.57-2.53,1.02-5.03,3.54-5.59,2.52-.57,5.03,1.02,5.6,3.54.97,4.3,3.92,18.83,1.28,25.19Z"/>
        </g>
        <g>
          <path class="cls-1" d="M176.36,340.75c-1.53-7.14-5.09-13.66-10.31-18.89-.02-.02-.05-.05-.07-.07-.05-.05-.09-.09-.14-.14-3.59-3.55-7.75-6.29-12.38-8.15-.05-.02-.11-.04-.16-.06-.06-.03-.13-.05-.2-.08-4.44-1.77-9.13-2.65-13.98-2.65-1.88,0-3.79.14-5.67.42-18.49,2.75-32.44,18.96-32.44,37.69,0,13.97,7.67,26.77,19.78,33.41,7.98-6.8,18.32-10.91,29.6-10.91,5.94,0,11.62,1.14,16.84,3.22,1.5-1.64,2.85-3.4,4.02-5.25.02-.02.03-.05.05-.08,3.88-6.1,5.93-13.14,5.93-20.39,0-2.74-.29-5.44-.85-8.05ZM158.25,359.38c-.73,1.85-2.49,2.97-4.36,2.97-.57,0-1.15-.11-1.72-.33-2.41-.95-3.59-3.67-2.65-6.08,2.48-6.28,1.39-18.85.77-23.16-.37-2.56,1.41-4.94,3.97-5.31,2.55-.37,4.94,1.4,5.31,3.96.26,1.84,2.5,18.25-1.32,27.95Z"/>
          <path class="cls-3" d="M158.25,359.38c-.73,1.85-2.49,2.97-4.36,2.97-.57,0-1.15-.11-1.72-.33-2.41-.95-3.59-3.67-2.65-6.08,2.48-6.28,1.39-18.85.77-23.16-.37-2.56,1.41-4.94,3.97-5.31,2.55-.37,4.94,1.4,5.31,3.96.26,1.84,2.5,18.25-1.32,27.95Z"/>
        </g>
        <path class="cls-3" d="M66.62,503.93c-.91.89-2.09,1.34-3.27,1.34s-2.44-.47-3.35-1.42c-1.81-1.85-1.78-4.82.08-6.63,2.3-2.24-2.03-9.39-5.09-12.75-1.74-1.92-1.59-4.88.32-6.62,1.92-1.74,4.88-1.6,6.62.32,5.42,5.98,12.53,18.13,4.7,25.77Z"/>
        <g>
          <path class="cls-1" d="M268.78,342.9s-.08-.03-.12-.05c-.04-.01-.08-.03-.11-.04-3.47-1.35-7.12-2.04-10.86-2.04-1.62,0-3.23.13-4.83.4,0,.09,0,.19,0,.28,0,2.97-.28,5.96-.84,8.87-1.8,9.63-6.51,18.34-13.47,25.1,9.29,6.03,16.49,14.92,20.43,25.32,15.94-.68,28.7-13.87,28.7-29.97,0-12.38-7.41-23.3-18.91-27.87ZM279.4,374.81c-1.08,2.95-3.58,9.79-9,9.79-.09,0-.18,0-.28-.01-2.59-.11-4.59-2.3-4.49-4.88.09-2,1.41-3.65,3.2-4.25,1.04-1.55,2.68-6.07,3.65-10.15.59-2.52,3.12-4.08,5.64-3.49,2.52.59,4.08,3.11,3.49,5.63-.04.15-.88,3.74-2.2,7.36Z"/>
          <path class="cls-3" d="M281.6,367.46c-.04.15-.88,3.74-2.2,7.36-1.08,2.95-3.58,9.79-9,9.79-.09,0-.18,0-.28-.01-2.59-.11-4.59-2.3-4.49-4.88.09-2,1.41-3.65,3.2-4.25,1.04-1.55,2.68-6.07,3.65-10.15.59-2.52,3.12-4.08,5.64-3.49,2.52.59,4.08,3.11,3.49,5.63Z"/>
        </g>
        <path class="cls-3" d="M411.14,193.05c-2.43,0-4.48-1.87-4.67-4.33-1.78-23.07,4.32-51.74,4.58-52.95.54-2.53,3.04-4.14,5.57-3.6,2.53.54,4.14,3.04,3.6,5.57-.06.28-6.06,28.56-4.39,50.25.2,2.58-1.73,4.83-4.31,5.03-.12,0-.24.01-.37.01Z"/>
        <path class="cls-3" d="M436.29,155.08c-2.24,0-4.22-1.61-4.61-3.89-.44-2.55,1.28-4.97,3.83-5.41,21.67-3.72,45.77-32.01,46.01-32.29,1.67-1.98,4.63-2.23,6.6-.56,1.98,1.67,2.23,4.63.56,6.6-1.07,1.27-26.58,31.19-51.58,35.49-.27.05-.54.07-.8.07Z"/>
        <path class="cls-3" d="M400.09,213.48c-1.16,0-2.33-.04-3.5-.11-2.58-.17-4.54-2.39-4.38-4.98.16-2.58,2.39-4.54,4.98-4.38,22.68,1.45,45.43-14.8,45.66-14.96,2.1-1.52,5.03-1.05,6.54,1.05,1.52,2.1,1.05,5.03-1.05,6.54-.99.72-23.58,16.83-48.25,16.83Z"/>
      </g>
    </g>
  </g>
</svg>