<?xml version="1.0" encoding="UTF-8"?>
<svg id="Layer_2" data-name="Layer 2" xmlns="http://www.w3.org/2000/svg" viewBox="0 0 301.31 301.31">
  <defs>
    <style>
      .cls-1 {
        fill: #000;
        stroke-width: 0px;
      }
    </style>
  </defs>
  <g id="Layer_1-2" data-name="Layer 1">
    <path class="cls-1" d="M119.14,72.58c4.07,3.25,7.36,7.41,9.69,12.49,1.83,3.94,3.07,8.42,3.8,13.36,1.01,1.33,4.21,5.86,6.82,12.9,2.74,7.27,5.31,18.76,2.51,32.62,6.82,1.01,12.17,6.63,12.72,13.59,3.66-4.03,8.83-8.56,15.92-12.72-1.92-4.35-4.8-8.6-7.82-13.13-5.37-8.03-11.4-17-12.94-27.8l-22.39-38.28-.4-.3h-22.48c.32.37.63.73.94,1.1,1.83.27,7.73,1.51,13.63,6.17ZM75.35,218.02c-.09-.05-.14-.14-.23-.18-1.64-1.33-3.75-2.15-6.04-2.15-.94,0-1.85.14-2.72.39-.86.26-1.68.63-2.4,1.11-.09.09-.14.14-.23.18-2.47,1.74-4.07,4.58-4.07,7.78,0,2.36.88,4.52,2.33,6.18h14.23c.85-.97,1.52-2.12,1.91-3.38.28-.92.42-1.83.42-2.84,0-2.84-1.24-5.35-3.21-7.09ZM72.2,230.55c-.32.32-.78.5-1.23.5s-.92-.18-1.28-.54c-.68-.69-.64-1.83.04-2.52.87-.87-.78-3.57-1.92-4.85-.69-.73-.64-1.88.09-2.52.73-.64,1.88-.59,2.52.14,2.06,2.28,4.76,6.91,1.78,9.79ZM59.48,187.09c-.73,6.13-1.01,15.6,1.87,27.08,10.21-11.39,8.61-29.97,5.31-43.92-2.11-8.92-5.13-17.06-7.46-22.64-.56,5.94-2.16,12.27-3.88,18.84v43.1c.56.81,1.19,1.61,1.87,2.38-2.24-10.7-1.97-19.58-1.19-25.48.96-7.59,2.84-11.98,2.93-12.17.37-.92,1.42-1.33,2.33-.92.92.41,1.33,1.46.92,2.33,0,.09-1.78,4.26-2.7,11.39ZM103.99,214.77c-8.6,0-15.83-6.36-17.11-14.64-3.43,1.69-10.34,5.58-17.57,11.89,2.88.04,5.58,1.05,7.73,2.7,11.89.18,25.25,3.06,42.13,6.72.73.17,1.46.33,2.19.49v-4.54c-3.23-.89-6.22-2.6-8.64-5-2.56,1.51-5.54,2.38-8.74,2.38ZM119.97,231.33h1.4v-1.38c-.43.47-.9.93-1.4,1.38ZM118.45,225.02c-15.09-3.25-27.4-5.91-38.15-6.5,1.19,1.97,1.83,4.21,1.83,6.63,0,.65-.04,1.24-.14,1.88,3.39.37,10.79.87,17.43-.23.96-.14,1.88.5,2.06,1.46.14.96-.51,1.88-1.46,2.06-3.25.55-6.63.73-9.66.73-4.07,0-7.55-.32-9.42-.54-.13.28-.27.56-.42.82h33.84c2.79-1.9,4.94-3.94,6.1-5.86-.68-.18-1.32-.32-2.01-.46ZM55.32,221.96c.72-.97,1.47-1.94,2.24-2.89.23-.41.46-.78.69-1.14-1.05-.86-2.02-1.75-2.93-2.69v6.72ZM109.93,161.43l-.04-.05-.04-.04c-1.37-1.37-2.97-2.42-4.71-3.11h-.04q-.05-.04-.09-.04c-1.69-.68-3.48-1.01-5.31-1.01-.73,0-1.42.09-2.15.18-7,1.05-12.31,7.23-12.31,14.32,0,5.26,2.93,10.11,7.54,12.67,3.07-2.56,6.96-4.12,11.26-4.12,2.29,0,4.44.46,6.41,1.23.55-.64,1.05-1.32,1.51-2.01v-.04c1.46-2.29,2.24-4.99,2.24-7.73,0-1.05-.09-2.06-.32-3.06-.59-2.75-1.97-5.22-3.94-7.18ZM106.96,175.66c-.27.73-.92,1.14-1.64,1.14-.23,0-.41-.04-.65-.13-.91-.37-1.37-1.37-1.01-2.33.92-2.38.51-7.14.28-8.78-.14-.96.55-1.88,1.51-2.02.96-.13,1.88.55,2.02,1.51.09.69.96,6.96-.51,10.62ZM64.37,86.86s.09.13.14.23c1.05,1.69,2.19,3.02,3.43,3.98.78.64.92,1.74.32,2.52-.37.46-.87.69-1.42.69-.37,0-.78-.09-1.1-.37-.82-.65-1.6-1.42-2.38-2.33-.51,1.64-1.01,3.89-1.01,6.49,0,1.92.23,4.03.96,6.22.87,2.7,2.28,5.24,4.25,7.62,1.97,2.38,4.49,4.6,7.55,6.65.09.04.18.14.27.18,2.06,1.37,4.3,2.66,6.82,3.84.87.41,1.24,1.51.83,2.38-.32.64-.96,1.01-1.61,1.01-.27,0-.54-.04-.78-.18-1.64-.78-3.2-1.6-4.67-2.47.14,2.24.55,5.58,1.88,9.33,3.16,8.97,9.79,16.06,19.81,21.09.68-.09,1.42-.13,2.1-.13,1.33,0,2.61.13,3.89.41-.04-.46-.04-.96-.04-1.42,0-5.21,1.97-10.11,5.4-13.49l-10.43-9.15,2.33-2.65,10.89,9.61c1.88-1.19,3.93-1.92,6.13-2.15.23-4.89-1.73-11.16-5.81-18.62-.05-.09-.05-.14-.09-.18-.37-.65-.73-1.33-1.14-2.02-2.24.59-4.67.83-7.09.83-12.76,0-26.58-6.73-27.31-7.1-.92-.41-1.23-1.46-.82-2.38.41-.92,1.51-1.23,2.38-.82.18.09,18.16,8.83,30.88,6.27-2.74-4.34-6.04-8.97-9.97-13.96-.59.09-1.23.14-1.87.14-8.19,0-18.17-7.23-18.62-7.59-.78-.55-.96-1.69-.37-2.47.55-.78,1.69-.96,2.47-.37,2.74,2.01,9.97,6.45,15.64,6.86-.32-.41-.64-.78-.96-1.19-11.43-13.75-23.36-25.12-25.19-26.86h-12.12c.66,4.4,1.47,8.32,2.43,11.73,1.13,4.01,2.47,7.3,4,9.82ZM55.32,228.19v3.14h2.36c-.75-1.37-1.27-2.88-1.49-4.48-.3.45-.58.9-.87,1.35ZM139.81,147.38c-2.06.04-4.07.59-5.81,1.64-1.24.78-2.29,1.69-3.16,2.84,1.28.46,2.56,1.05,3.75,1.83,4.16,2.66,7,6.77,7.96,11.53.73-.14,1.46-.18,2.19-.18,1.42,0,2.79.18,4.16.59.59-.78,1.1-1.64,1.47-2.56,0-.04.04-.09.04-.14.5-1.32.78-2.69.78-4.16,0-6.27-5.08-11.39-11.4-11.39ZM109.89,185.08c-1.78-.87-3.79-1.33-5.9-1.33-7.59,0-13.77,6.18-13.77,13.77s6.18,13.77,13.77,13.77,13.77-6.17,13.77-13.77c0-2.7-.79-5.23-2.14-7.36-1.35-2.14-3.28-3.87-5.54-5-.04-.04-.14-.04-.18-.09ZM112.86,195.69c.05.28,1.51,6.82-3.29,10.43-.32.27-.69.37-1.06.37-.55,0-1.05-.23-1.42-.69-.59-.78-.41-1.88.37-2.47,2.97-2.24,1.97-6.72,1.97-6.77-.23-.96.37-1.92,1.33-2.15.96-.23,1.92.37,2.1,1.28ZM55.49,139.42c-.09-.82.42-1.64,1.24-1.92.82-.27,1.69.09,2.11.87.27.59,7.23,14.32,11.21,31.06,2.33,9.93,3.11,18.8,2.33,26.44-.41,4.07-1.28,7.78-2.61,11.12,7.59-6.08,14.32-9.47,16.88-10.66.27-3.52,1.56-6.73,3.57-9.38-5.26-3.25-8.55-9.06-8.55-15.33,0-4.34,1.56-8.51,4.39-11.81,1.78-2.06,4.07-3.7,6.54-4.76-11.12-6.63-16.01-15.14-18.21-21.41-2.01-5.72-2.11-10.52-2.01-12.62-6.45-4.48-10.61-9.74-12.53-15.74-2.56-8.05-.14-14.91.96-17.34-2.28-4.05-4.11-9.54-5.49-16.46v77.98c.49-3.55.61-6.92.18-10.05ZM156.1,180c0-4.71-2.84-8.88-7.18-10.57h-.09c-1.33-.51-2.7-.78-4.12-.78-.59,0-1.24.04-1.83.13v.09c0,1.14-.09,2.29-.32,3.38-.36,1.9-1.01,3.71-1.93,5.36l8.71,12.77c3.98-1.77,6.77-5.76,6.77-10.4ZM149.51,185.22h-.09c-.96,0-1.74-.87-1.69-1.83.04-.78.55-1.37,1.19-1.64.37-.59,1.01-2.29,1.37-3.84.23-.96,1.19-1.56,2.15-1.33.96.23,1.56,1.19,1.33,2.15,0,.05-.32,1.42-.82,2.79-.41,1.09-1.37,3.71-3.43,3.71ZM212.5,141.89c-4.44-.46-9.01-.92-13.77-.92-6.58,0-12.39.96-17.84,2.88,8.33.18,20.49.64,24.38,2.19.92.37,1.37,1.42,1.01,2.24-.27.73-.96,1.14-1.64,1.14-.18,0-.41-.04-.65-.13-3.24-1.28-14.96-1.79-23.69-1.92,11.62,5.63,22.46,8.46,32.21,8.46,13.25,0,22.3-5.39,26.76-12.44v-4.09c-5.1,2.88-10.4,3.36-14.87,3.36-3.84,0-7.73-.37-11.89-.78ZM212.5,159.51c-5.97,0-12.28-1.01-18.89-2.99-6.61-1.99-13.51-4.95-20.68-8.86-9.93,5.67-15.92,12.22-19.31,16.83-.37.92-.82,1.79-1.37,2.57,4.58,2.65,7.41,7.5,7.41,12.9,0,3.86-1.49,7.4-3.91,10.05-1.25,1.37-2.74,2.5-4.41,3.33l1.92,2.81c3.91-2.15,7.61-3.37,10.62-4.03,5.17-1.14,9.24-1.01,10.89-.87,8.32-6.96,17.57-9.06,24.43-9.52,7.5-.51,13.45.82,15.55,1.37,7.56-4.66,18.99-7.81,24.52-9.15v-24.61c-5.6,5.98-14.6,10.16-26.76,10.16ZM117.94,184.67c-.46.32-.96.64-1.42,1.01,2.97,3.11,4.76,7.27,4.76,11.89,0,5.08-2.2,9.65-5.68,12.81,1.67,1.54,3.64,2.7,5.77,3.43v-30.8c-1.18.4-2.31.94-3.38,1.61,0,.04-.05.04-.05.04ZM214.02,77.3c-.14.96-1.06,1.64-2.02,1.51-1.01-.13-1.69-1.05-1.56-2.01.57-4.3,1.54-8.1,2.76-11.48h-2.26c-2.6,1.95-5.57,4.67-8.36,8.33-9.11,11.85-12.49,28.59-10.02,48.54,2.88-3.8,5.76-7.87,8.56-11.95-.51-8.64,1.69-18.98,1.78-19.44.18-.96,1.14-1.56,2.1-1.37.96.18,1.61,1.14,1.38,2.11-.05.09-1.42,6.68-1.74,13.49,11.21-16.74,20.31-32.39,20.44-32.62.51-.83,1.56-1.14,2.43-.65.87.51,1.14,1.56.64,2.43-.09.13-4.76,8.14-11.48,18.8,6.73-3.38,12.86-10.57,12.95-10.66.64-.78,1.78-.87,2.52-.23.77.65.87,1.78.23,2.52-.21.23-2.6,3.03-6.09,6.04-3.5,3.01-8.09,6.22-12.72,7.27-2.83,4.44-5.9,9.11-9.1,13.77-.05.04-.05.09-.09.14-1.09,1.6-2.19,3.2-3.29,4.76,7.32-.87,13.82-5.53,13.91-5.58.78-.54,1.87-.36,2.47.41.55.78.37,1.88-.41,2.47-.37.28-8.92,6.41-18.3,6.41h-.32c-1.1,1.51-2.15,3.02-3.25,4.44,10.57-.69,19.39-2.47,26.35-5.36,6.22-2.56,10.93-5.99,14.04-10.2,2-2.76,3.12-5.55,3.71-8.06v-3.24c-2.62,3.43-5.95,6.35-9.88,8.78-.27.18-.59.28-.91.28-.59,0-1.19-.32-1.51-.87-.51-.87-.23-1.97.59-2.47,5.19-3.17,9.11-7.27,11.71-12.19v-26.1h-22.25c-1.44,3.67-2.44,7.66-3,11.99ZM150.65,0C67.45,0,0,67.45,0,150.65s67.45,150.65,150.65,150.65,150.65-67.45,150.65-150.65S233.86,0,150.65,0ZM252.39,242.4h-70.95l-6.69-4.91-2.21-1.63-1.15-1.73-6.1-9.14-1.63-2.45-6.05-9.07-2.4-3.6-5-7.49-2-3-1.81-2.73-11.65-17.48c-.09.08-.18.17-.27.25v62.97H58.71l-7.9-5.77-1.9-1.38V58.9h80.24l8.97,6.6,12.93,22.13,2.61,4.46,13.13,22.47v-55.65h75.79l2.89,2.11,6.91,5.05v176.34ZM179.89,116.66c0,7.02-.92,14.88-3.67,24.32,1.83-1.58,3.86-3.6,6.08-6.07,2.22-2.47,4.63-5.37,7.23-8.71-1.97-12.44-1.78-23.74.51-33.62,1.87-8.1,5.22-15.28,9.83-21.27,1.8-2.35,3.66-4.33,5.46-5.99h-28.6c-1.7,12.68-.2,22.23,1.22,31.52.95,6.25,1.93,12.58,1.93,19.82ZM215.94,186.63c-1.74,1.09-3.16,2.33-4.07,3.57-.55.78-1.69.96-2.47.37-.78-.55-.96-1.69-.37-2.47.55-.73,1.19-1.42,1.92-2.1-2.15-.37-5.08-.73-8.51-.73-1.01,0-2.06,0-3.16.09-8.83.65-16.42,3.66-22.69,9.06-.04.09-.14.13-.23.23-1.65,1.51-3.25,3.11-4.71,4.94-.37.41-.87.64-1.37.64-.42,0-.83-.13-1.14-.41-.78-.64-.92-1.74-.28-2.52.73-.87,1.47-1.69,2.2-2.47-1.79.04-4.03.27-6.54.87-3.24.74-6.33,1.89-9.23,3.44l7.31,10.72c6.62-.15,12.65-.65,18.07-1.4,11.89-2.33,16.83-15.7,16.88-15.83.37-.96,1.37-1.42,2.29-1.1.96.37,1.42,1.37,1.1,2.29-.05.18-1.56,4.3-4.95,8.64-1.09,1.46-2.33,2.74-3.61,3.89,5.22-1.19,9.65-2.56,13.31-3.89,13.59-4.94,19.86-10.52,19.9-10.57.73-.64,1.88-.59,2.52.14.64.73.59,1.87-.14,2.51-.27.28-6.86,6.13-21.09,11.3-8.01,2.88-16.83,4.99-26.31,6.27-.37.05-.73.09-1.09.14h-.37c-2.79.37-5.58.64-8.47.82,14.73,9.29,28.41,9.43,28.55,9.43,1.01,0,1.78.82,1.78,1.78s-.82,1.78-1.78,1.78c-.73,0-17.1-.14-33.94-12.31l11.97,17.57h34.86c2.08-1,4.02-2.21,5.82-3.62,3.57-2.79,6.04-5.94,7.68-8.78-2.15,1.37-4.39,2.47-6.82,3.34-.18.05-.41.09-.59.09-.73,0-1.42-.46-1.69-1.19-.37-.92.14-1.97,1.06-2.29,4.3-1.56,8.05-3.89,11.21-7.04.14-.18.28-.32.41-.41,4.3-4.39,7.51-10.29,9.56-17.61.2-.72.39-1.44.55-2.14v-13.98c-6.73,1.68-17.06,4.88-23.28,8.94h-.04ZM221.05,123.39c-7.7,2.86-17.3,4.55-28.77,5.06-1.71,2.21-3.36,4.25-4.93,6.1-1.57,1.85-3.07,3.52-4.49,5.01,4.94-1.37,10.16-2.06,15.92-2.06,4.89,0,9.56.46,14.09.92,4.07.41,7.91.78,11.53.78,6.31,0,10.99-1.22,14.87-3.96v-25.27c-.28.44-.59.89-.92,1.33-3.82,5.19-9.61,9.23-17.3,12.1ZM220.05,230.37c-.42.33-.85.65-1.29.96h20.5v-28.85c-2,4.34-4.52,8.09-7.5,11.19-1.1,3.35-4.21,10.8-11.71,16.7ZM130.94,146.74c-.99-2.59-2.59-4.74-4.57-6.24-1.97-1.51-4.33-2.37-6.82-2.37-2.24,0-4.44.69-6.36,2.02-.04.09-.09.13-.14.18-.23.23-.5.41-.78.5-3.29,2.7-5.21,7.1-5.21,11.76,0,.92.09,1.83.23,2.7,1.28.59,2.47,1.33,3.57,2.2,2.69-3.3,6.4-5.51,10.52-6.32v-2.02l1.21,1.81c.75-.09,1.51-.15,2.27-.16.78,0,1.51.05,2.24.14,1.01-1.64,2.29-3.07,3.84-4.21ZM113.41,159.96c1.92,2.29,3.25,4.95,3.89,7.87.28,1.23.41,2.51.28,3.75,0,2.93-.73,5.81-2.06,8.37.46.37.92.68,1.42,1.01,1.41-.77,2.9-1.37,4.44-1.78v-24.38c-3.13.77-5.93,2.57-7.96,5.17ZM139.17,167.42c-.41-4.43-2.83-8.32-6.59-10.75-1.51-1.01-3.11-1.64-4.89-2.01h-.09c-.9-.18-1.8-.27-2.74-.27l3.24,4.86,10.1,14.82c.33-.82.58-1.69.75-2.58.18-.87.27-1.78.27-2.7,0-.41,0-.87-.04-1.32v-.05ZM174.4,97.43c-1.46-9.48-2.95-19.21-1.26-32.12h-.85v53.24c1.06,5.62,1.8,10.45,2.24,14.51,3.11-14.54,1.51-24.84-.13-35.63ZM98,89.88c6.27,7.55,11.3,14.46,15.05,20.68,1.65-10.02-2.93-21.87-2.97-22.01-.37-.91.09-1.92,1.01-2.28.92-.37,1.92.09,2.29,1.01.23.68,6.13,16.1,2.19,27.77,4.17,7.78,6.13,14.37,5.9,19.76,5.5.73,10.25,4.62,12.58,10.25,1.42-.59,2.83-.96,4.34-1.1,2.84-13.22.41-24.2-2.15-31.15-.96-2.52-1.97-4.72-2.93-6.54.04.46.04.92.04,1.37,0,.48-.21.92-.53,1.25-.32.33-.77.53-1.25.53-.96,0-1.78-.82-1.78-1.78-.09-14.5-4.53-25.66-12.81-32.16-3.1-2.42-6.17-3.79-8.46-4.57.73,1.37,1.33,2.79,1.74,4.21.27.92-.23,1.92-1.19,2.2-.92.27-1.92-.23-2.19-1.19-1.04-3.6-3.52-7.23-7.33-10.8h-24.33c4.59,4.48,13.83,13.81,22.78,24.57Z"/>
  </g>
</svg>