<?xml version="1.0" encoding="UTF-8"?>
<svg id="Layer_2" data-name="Layer 2" xmlns="http://www.w3.org/2000/svg" viewBox="0 0 1526.15 290.18">
  <defs>
    <style>
      .cls-1 {
        fill: #000;
        stroke-width: 0px;
      }
    </style>
  </defs>
  <g id="Layer_1-2" data-name="Layer 1">
    <g>
      <path class="cls-1" d="M30.02,255.74c-1.16,1.01-1.23,2.82-.14,3.98,1.8,2.02,4.41,6.29,3.03,7.67-1.08,1.08-1.15,2.89-.07,3.98.58.58,1.3.86,2.03.86s1.44-.28,1.95-.79c4.7-4.56.43-11.87-2.82-15.48-1.01-1.16-2.82-1.23-3.98-.22ZM89.41,165.45c-1.51.22-2.6,1.67-2.38,3.19.36,2.6,1.01,10.13-.44,13.89-.58,1.52.15,3.11,1.59,3.69.37.14.66.21,1.02.21,1.15,0,2.17-.65,2.6-1.8,2.32-5.79.94-15.7.8-16.79-.22-1.52-1.67-2.6-3.19-2.39ZM165.81,189.47c.36-1.52-.58-3.04-2.1-3.4-1.52-.36-3.04.58-3.4,2.1-.58,2.46-1.59,5.14-2.17,6.08-1.01.43-1.81,1.37-1.88,2.6-.07,1.52,1.16,2.9,2.68,2.9h.14c3.26,0,4.78-4.13,5.43-5.86.79-2.17,1.3-4.34,1.3-4.42ZM95.71,217.69c0,.07,1.59,7.16-3.11,10.7-1.23.94-1.52,2.68-.58,3.91.58.72,1.37,1.09,2.24,1.09.58,0,1.16-.15,1.67-.58,7.59-5.72,5.28-16.06,5.2-16.5-.29-1.44-1.8-2.38-3.32-2.02-1.52.36-2.46,1.88-2.1,3.4ZM310.86,3.34L306.29,0h-119.86v88.01l-20.77-35.53-4.13-7.06-20.45-34.99L126.89,0H0v278.86l3,2.19,12.49,9.13h119.86v-99.58c.15-.13.29-.27.43-.4l18.42,27.65,2.87,4.31,3.16,4.74,7.9,11.85,3.79,5.69,9.56,14.34,2.57,3.87,9.64,14.45,1.82,2.74,3.49,2.57,10.58,7.77h112.2V11.32l-10.92-7.98ZM202.15,10.13h45.22c-2.85,2.63-5.79,5.77-8.64,9.48-7.3,9.48-12.59,20.83-15.55,33.64-3.62,15.63-3.91,33.49-.8,53.17-4.12,5.28-7.93,9.87-11.44,13.77-3.51,3.9-6.71,7.1-9.61,9.6,4.35-14.93,5.8-27.36,5.8-38.46s-1.54-21.47-3.05-31.35c-2.25-14.69-4.62-29.8-1.93-49.85ZM195.11,10.13h1.34c-2.67,20.41-.32,35.8,1.99,50.79,2.6,17.07,5.13,33.35.21,56.35-.7-6.43-1.87-14.06-3.54-22.95V10.13ZM123.56,10.13l.63.47,35.41,60.54c2.44,17.08,11.97,31.26,20.46,43.96,4.78,7.17,9.33,13.89,12.37,20.77-11.21,6.58-19.39,13.74-25.17,20.11-.87-11-9.34-19.9-20.12-21.49,4.42-21.92.37-40.08-3.97-51.58-4.13-11.14-9.19-18.3-10.78-20.4-1.16-7.81-3.11-14.9-6.01-21.13-3.69-8.03-8.9-14.61-15.33-19.75-9.34-7.37-18.67-9.33-21.56-9.76-.48-.58-.97-1.16-1.48-1.74h35.55ZM161.76,157.93c0,2.32-.44,4.49-1.23,6.58,0,.08-.07.15-.07.22-.58,1.45-1.38,2.82-2.32,4.05-2.17-.65-4.34-.94-6.58-.94-1.16,0-2.32.07-3.47.29-1.52-7.52-6.01-14.03-12.59-18.23-1.88-1.23-3.91-2.17-5.93-2.89,1.37-1.81,3.03-3.26,4.99-4.49,2.75-1.66,5.93-2.53,9.18-2.6,9.99,0,18.02,8.1,18.02,18.01ZM80.07,10.13c6.03,5.65,9.95,11.38,11.59,17.08.43,1.51,2.02,2.31,3.47,1.88,1.52-.44,2.31-2.03,1.88-3.48-.65-2.24-1.59-4.48-2.75-6.65,3.62,1.23,8.47,3.4,13.38,7.23,13.1,10.28,20.12,27.93,20.26,50.86,0,1.52,1.3,2.82,2.82,2.82.76,0,1.47-.32,1.98-.84.51-.52.84-1.22.84-1.98,0-.72,0-1.45-.07-2.17,1.52,2.89,3.11,6.37,4.63,10.35,4.05,10.99,7.89,28.35,3.4,49.26-2.39.22-4.63.8-6.87,1.74-3.69-8.9-11.21-15.05-19.9-16.21.37-8.53-2.74-18.95-9.33-31.25,6.22-18.45-3.11-42.83-3.47-43.91-.58-1.45-2.17-2.17-3.62-1.59-1.44.57-2.17,2.17-1.59,3.61.07.22,7.31,18.96,4.7,34.8-5.93-9.84-13.89-20.76-23.8-32.7-14.16-17.01-28.77-31.76-36.03-38.85h38.48ZM33.44,10.13c2.9,2.74,21.77,20.72,39.84,42.47.51.65,1.01,1.23,1.52,1.88-8.97-.65-20.4-7.67-24.74-10.85-1.23-.94-3.04-.65-3.91.58-.94,1.23-.65,3.03.58,3.9.72.58,16.5,12.01,29.45,12.01,1.01,0,2.02-.07,2.96-.22,6.22,7.89,11.43,15.2,15.77,22.07-20.11,4.05-48.54-9.77-48.83-9.91-1.37-.65-3.11-.15-3.76,1.3-.65,1.45-.15,3.11,1.3,3.76,1.16.58,23.01,11.22,43.19,11.22,3.83,0,7.67-.37,11.21-1.31.65,1.09,1.23,2.17,1.81,3.19.07.07.07.14.15.29,6.44,11.79,9.55,21.7,9.18,29.44-3.47.36-6.72,1.52-9.69,3.4l-17.22-15.19-3.69,4.19,16.5,14.47c-5.43,5.36-8.54,13.1-8.54,21.34,0,.73,0,1.52.07,2.25-2.02-.44-4.05-.65-6.15-.65-1.08,0-2.24.07-3.32.21-15.85-7.95-26.34-19.17-31.33-33.35-2.1-5.93-2.75-11.21-2.97-14.76,2.32,1.38,4.78,2.68,7.38,3.91.37.22.8.29,1.23.29,1.02,0,2.03-.58,2.54-1.59.65-1.38.07-3.11-1.31-3.76-3.98-1.88-7.52-3.91-10.78-6.08-.14-.07-.29-.22-.43-.29-4.84-3.25-8.82-6.76-11.94-10.52-3.11-3.77-5.35-7.78-6.72-12.05-1.16-3.47-1.52-6.8-1.52-9.84,0-4.12.79-7.67,1.59-10.27,1.23,1.44,2.46,2.67,3.76,3.69.51.43,1.16.58,1.74.58.86,0,1.66-.37,2.24-1.09.94-1.23.72-2.97-.51-3.98-1.95-1.52-3.76-3.62-5.42-6.29-.08-.15-.15-.29-.22-.36-2.42-3.98-4.54-9.19-6.33-15.53-1.52-5.39-2.8-11.59-3.85-18.55h19.17ZM99.69,190.56v.07c-.73,1.09-1.52,2.17-2.39,3.18-3.11-1.23-6.51-1.95-10.13-1.95-6.8,0-12.95,2.46-17.8,6.51-7.3-4.05-11.93-11.72-11.93-20.04,0-11.21,8.39-20.98,19.46-22.64,1.16-.15,2.24-.29,3.4-.29,2.89,0,5.71.51,8.39,1.59q.07,0,.15.07h.07c2.75,1.09,5.28,2.75,7.45,4.92l.07.07.07.08c3.11,3.11,5.29,7.01,6.23,11.36.36,1.59.5,3.18.5,4.84,0,4.34-1.23,8.61-3.54,12.23ZM105.48,207.57c2.14,3.37,3.39,7.37,3.39,11.64,0,12.01-9.76,21.77-21.77,21.77s-21.78-9.76-21.78-21.77,9.77-21.78,21.78-21.78c3.33,0,6.51.72,9.33,2.1.07.07.22.07.29.14,3.58,1.78,6.62,4.52,8.76,7.9ZM10.13,19.91c2.18,10.94,5.08,19.63,8.68,26.03-1.74,3.84-5.57,14.69-1.52,27.42,3.04,9.48,9.62,17.8,19.82,24.89-.15,3.33,0,10.92,3.18,19.96,3.48,9.92,11.22,23.37,28.8,33.86-3.91,1.67-7.53,4.27-10.35,7.52-4.48,5.21-6.94,11.8-6.94,18.67,0,9.91,5.2,19.1,13.52,24.24-3.18,4.19-5.21,9.26-5.64,14.83-4.05,1.88-14.68,7.23-26.69,16.85,2.09-5.28,3.47-11.14,4.12-17.58,1.23-12.08,0-26.11-3.69-41.81-6.29-26.48-17.29-48.18-17.72-49.12-.66-1.23-2.03-1.81-3.33-1.38-1.3.44-2.1,1.74-1.96,3.04.69,4.95.49,10.29-.28,15.9V19.91ZM10.13,272.67v-4.96c.45-.71.9-1.42,1.37-2.13.35,2.54,1.17,4.93,2.36,7.09h-3.73ZM13.67,253.28c-1.22,1.5-2.4,3.03-3.54,4.57v-10.63c1.43,1.48,2.97,2.89,4.63,4.25-.37.58-.73,1.16-1.09,1.81ZM19.53,181.01c-1.45-.65-3.11,0-3.69,1.45-.14.29-3.11,7.23-4.63,19.24-1.23,9.33-1.66,23.37,1.88,40.29-1.08-1.23-2.07-2.49-2.96-3.77v-68.15c2.73-10.39,5.25-20.39,6.14-29.79,3.69,8.83,8.47,21.7,11.8,35.81,5.21,22.06,7.74,51.44-8.4,69.45-4.55-18.16-4.12-33.13-2.96-42.83,1.45-11.28,4.27-17.87,4.27-18.01.65-1.38,0-3.04-1.45-3.69ZM46.22,267.32c-.62,1.99-1.67,3.81-3.02,5.35h-22.51c-2.3-2.62-3.69-6.04-3.69-9.77,0-5.06,2.53-9.55,6.44-12.3.14-.07.21-.14.36-.29,1.15-.76,2.44-1.35,3.8-1.76,1.37-.4,2.81-.62,4.3-.62,3.62,0,6.95,1.3,9.55,3.4.14.07.22.21.36.29,3.11,2.75,5.07,6.72,5.07,11.21,0,1.59-.22,3.04-.66,4.49ZM103.49,272.67h-53.51c.24-.42.46-.86.66-1.3,2.96.36,8.46.86,14.9.86,4.78,0,10.13-.28,15.27-1.15,1.51-.29,2.53-1.74,2.31-3.26-.29-1.52-1.74-2.53-3.26-2.31-10.49,1.73-22.2.94-27.56.36.15-1.01.22-1.95.22-2.97,0-3.83-1.01-7.38-2.89-10.49,17,.94,36.46,5.14,60.33,10.28,1.09.21,2.1.43,3.18.72-1.84,3.03-5.24,6.25-9.65,9.26ZM114.59,272.67h-2.22c.79-.72,1.54-1.45,2.22-2.19v2.19ZM114.59,257.81c-1.16-.25-2.32-.5-3.47-.77-26.7-5.79-47.82-10.34-66.63-10.63-3.4-2.61-7.67-4.2-12.23-4.27,11.43-9.98,22.36-16.13,27.78-18.81,2.03,13.09,13.46,23.15,27.06,23.15,5.06,0,9.77-1.37,13.82-3.76,3.84,3.8,8.56,6.5,13.67,7.91v7.18ZM114.59,244.97c-3.37-1.16-6.48-3-9.12-5.43,5.5-5,8.98-12.23,8.98-20.26,0-7.31-2.83-13.89-7.53-18.81.72-.58,1.52-1.09,2.24-1.59,0,0,.08,0,.08-.07,1.69-1.06,3.48-1.91,5.35-2.55v48.71ZM114.59,190.2c-2.43.66-4.79,1.6-7.02,2.82-.79-.51-1.52-1.01-2.24-1.59,2.1-4.05,3.26-8.61,3.26-13.24.21-1.96,0-3.98-.44-5.93-1.01-4.63-3.11-8.83-6.15-12.45,3.21-4.11,7.64-6.96,12.59-8.17v38.56ZM116.5,145.59l-1.91-2.87v3.19c-6.52,1.29-12.38,4.78-16.64,10-1.74-1.38-3.62-2.54-5.64-3.48-.22-1.37-.36-2.82-.36-4.27,0-7.37,3.03-14.32,8.24-18.59.44-.14.87-.43,1.23-.79.08-.08.15-.15.22-.29,3.04-2.1,6.51-3.19,10.06-3.19,3.94,0,7.67,1.36,10.79,3.74,3.13,2.37,5.66,5.77,7.22,9.86-2.46,1.81-4.49,4.06-6.08,6.66-1.15-.14-2.31-.22-3.54-.22-1.21.01-2.41.1-3.59.25ZM142.37,178.04c-.27,1.41-.66,2.78-1.18,4.08l-15.97-23.44-5.12-7.69c1.49,0,2.91.15,4.33.43h.14c2.82.58,5.36,1.59,7.74,3.18,5.94,3.84,9.77,9.99,10.42,17v.08c.07.72.07,1.44.07,2.09,0,1.45-.14,2.9-.43,4.27ZM158.8,207.95l-13.77-20.2c1.46-2.62,2.49-5.47,3.06-8.48.36-1.73.5-3.54.5-5.35v-.15c.94-.14,1.96-.21,2.9-.21,2.24,0,4.41.43,6.51,1.23h.14c6.87,2.67,11.36,9.26,11.36,16.71s-4.41,13.65-10.7,16.45ZM301.02,272.67h-32.42c.69-.49,1.37-1,2.04-1.52,11.86-9.33,16.78-21.12,18.52-26.41,4.72-4.9,8.7-10.84,11.86-17.7v45.63ZM301.02,209.96c-.26,1.12-.55,2.25-.87,3.39-3.25,11.57-8.32,20.9-15.12,27.85-.21.14-.43.36-.65.65-4.99,4.99-10.92,8.68-17.72,11.14-1.45.51-2.25,2.17-1.67,3.62.44,1.16,1.52,1.88,2.68,1.88.29,0,.65-.07.94-.15,3.83-1.37,7.38-3.11,10.78-5.28-2.6,4.49-6.51,9.48-12.15,13.89-2.84,2.23-5.91,4.14-9.2,5.72h-55.13l-18.93-27.78c26.63,19.24,52.52,19.46,53.67,19.46,1.52,0,2.82-1.23,2.82-2.82s-1.23-2.82-2.82-2.82c-.22,0-21.85-.22-45.15-14.91,4.56-.29,8.98-.72,13.39-1.3h.58c.58-.07,1.15-.14,1.73-.22,14.98-2.02,28.94-5.35,41.6-9.91,22.5-8.17,32.92-17.43,33.35-17.87,1.16-1.01,1.23-2.82.22-3.97-1.01-1.16-2.82-1.23-3.98-.22-.07.07-9.98,8.9-31.47,16.71-5.79,2.1-12.8,4.27-21.05,6.15,2.02-1.81,3.98-3.84,5.71-6.15,5.36-6.87,7.74-13.38,7.82-13.67.5-1.45-.22-3.04-1.74-3.62-1.45-.51-3.04.22-3.62,1.74-.07.21-7.88,21.34-26.69,25.03-8.58,1.18-18.11,1.98-28.58,2.21l-11.56-16.96c4.59-2.45,9.47-4.27,14.6-5.44,3.98-.94,7.52-1.3,10.35-1.37-1.16,1.23-2.32,2.53-3.48,3.9-1.01,1.23-.79,2.97.44,3.98.5.44,1.15.65,1.81.65.79,0,1.59-.36,2.17-1.01,2.31-2.89,4.84-5.42,7.45-7.81.14-.15.29-.22.36-.36,9.91-8.54,21.92-13.31,35.88-14.33,1.74-.14,3.4-.14,4.99-.14,5.43,0,10.06.58,13.46,1.16-1.16,1.08-2.17,2.17-3.04,3.32-.94,1.23-.65,3.04.58,3.91,1.23.94,3.04.65,3.91-.58,1.44-1.95,3.69-3.91,6.44-5.64h.07c9.84-6.41,26.18-11.48,36.82-14.13v22.1ZM301.02,181.95c-8.75,2.12-26.83,7.1-38.78,14.47-3.32-.87-12.73-2.97-24.59-2.17-10.85.72-25.47,4.05-38.63,15.05-2.61-.22-9.05-.44-17.22,1.37-4.77,1.05-10.61,2.98-16.8,6.38l-3.03-4.45c2.64-1.31,5.01-3.11,6.98-5.27,3.84-4.2,6.19-9.79,6.19-15.9,0-8.54-4.48-16.21-11.72-20.4.87-1.23,1.59-2.61,2.17-4.06,5.36-7.3,14.83-17.65,30.53-26.62,11.33,6.18,22.25,10.87,32.7,14.01,10.46,3.14,20.44,4.73,29.88,4.73,19.23,0,33.46-6.6,42.32-16.06v38.92ZM301.02,133.63c-7.06,11.15-21.37,19.67-42.32,19.67-15.41,0-32.56-4.48-50.93-13.38,13.82.21,32.34,1.01,37.47,3.04.37.14.73.21,1.02.21,1.08,0,2.17-.65,2.6-1.81.58-1.3-.14-2.96-1.59-3.54-6.15-2.46-25.39-3.18-38.56-3.47,8.61-3.04,17.8-4.56,28.21-4.56,7.53,0,14.76.72,21.78,1.45,6.58.65,12.73,1.23,18.81,1.23,7.06,0,15.44-.75,23.51-5.31v6.47ZM301.02,120.7c-6.13,4.34-13.53,6.27-23.51,6.27-5.72,0-11.79-.58-18.23-1.23-7.16-.73-14.54-1.45-22.28-1.45-9.12,0-17.37,1.09-25.18,3.26,2.25-2.36,4.61-5,7.1-7.93,2.49-2.93,5.09-6.15,7.8-9.65,18.13-.8,33.32-3.47,45.49-8,12.17-4.54,21.32-10.92,27.36-19.13.52-.7,1-1.4,1.45-2.1v39.96ZM301.02,51.4c-4.12,7.79-10.32,14.27-18.52,19.28-1.3.8-1.74,2.54-.94,3.91.51.87,1.45,1.38,2.39,1.38.5,0,1.01-.15,1.44-.44,6.22-3.85,11.49-8.46,15.63-13.89v5.13c-.92,3.96-2.69,8.38-5.86,12.74-4.92,6.66-12.37,12.08-22.21,16.13-11,4.56-24.96,7.38-41.67,8.47,1.74-2.25,3.4-4.63,5.14-7.02h.5c14.83,0,28.36-9.69,28.94-10.13,1.23-.94,1.52-2.68.65-3.91-.94-1.22-2.67-1.51-3.9-.65-.15.08-10.42,7.46-22,8.83,1.74-2.46,3.48-4.99,5.21-7.52.07-.08.07-.15.15-.22,5.06-7.38,9.91-14.76,14.39-21.78,7.31-1.66,14.58-6.74,20.11-11.5,5.52-4.76,9.3-9.19,9.63-9.55,1.01-1.16.86-2.96-.36-3.98-1.16-1.01-2.97-.87-3.98.36-.15.15-9.84,11.51-20.48,16.86,10.64-16.86,18.02-29.52,18.16-29.73.8-1.38.36-3.04-1.01-3.84-1.38-.79-3.04-.29-3.84,1.02-.21.36-14.61,25.1-32.33,51.58.5-10.78,2.67-21.2,2.75-21.34.36-1.52-.66-3.04-2.18-3.33-1.51-.29-3.03.65-3.32,2.17-.15.72-3.62,17.07-2.82,30.74-4.42,6.44-8.97,12.88-13.53,18.89-3.91-31.55,1.44-58.02,15.84-76.76,4.41-5.79,9.11-10.08,13.22-13.17h3.58c-1.93,5.35-3.46,11.36-4.36,18.16-.21,1.52.87,2.97,2.46,3.18,1.52.22,2.97-.86,3.19-2.38.88-6.84,2.47-13.15,4.74-18.96h35.19v41.27Z"/>
      <g id="text">
        <path class="cls-1" d="M456.09,193.79l-32.38-41.98v41.98h-45.27v-93.84h48.02l26.61,39.24v-39.24h45.27v93.84h-42.25Z"/>
        <path class="cls-1" d="M712.63,147.42c0,15.91-5.76,29.91-15.91,37.04-10.98,7.96-26.89,11.8-48.56,11.8h-1.37c-1.1-1.37-1.65-10.15-1.37-15.09,1.92-21.95,23.05-45.82,13.99-70.51-1.92-4.94-10.7-13.17-11.25-13.72v.27c.27.82,3.02,4.66,2.47,14.82-1.1,22.77-24.15,46.1-15.09,70.51,1.92,4.94,10.7,13.17,11.25,13.72-20.58-.27-36.22-4.12-46.92-11.8-10.15-7.41-15.91-20.85-15.91-37.59,0-18.11,6.04-31.28,17.83-38.96,10.98-7.13,26.89-10.7,46.1-10.7,44.17,0,64.75,16.19,64.75,50.21Z"/>
        <path class="cls-1" d="M880,193.79l-32.38-41.98v41.98h-45.27v-93.84h48.02l26.61,39.24v-39.24h45.27v93.84h-42.25Z"/>
        <path class="cls-1" d="M1091.27,193.79l-3.29-12.07h-31.28l-3.29,12.07h-48.84l29.63-93.84h75.73l29.36,93.84h-48.02ZM1072.88,126.57l-10.15,29.63h19.76l-9.6-29.63Z"/>
        <path class="cls-1" d="M1241.9,193.79v-26.89l-40.88-66.95h53.5l12.35,28.54,11.25-28.54h51.86l-40.33,66.95v26.89h-47.74Z"/>
        <path class="cls-1" d="M1478.14,193.79l-3.29-12.07h-31.28l-3.29,12.07h-48.84l29.63-93.84h75.73l29.36,93.84h-48.02ZM1459.48,126.57l-10.15,29.63h19.76l-9.6-29.63Z"/>
      </g>
    </g>
  </g>
</svg>